<?xml version="1.0" encoding="UTF-8"?>
<svg version="1.1" xmlns="http://www.w3.org/2000/svg" width="489" height="489">
<path d="M0 0 C8.07790467 0.05265909 15.13083886 3.21994218 22.19921875 6.91796875 C25.5138166 8.50099692 28.7071318 9.40152549 32.25 10.375 C35.99534694 11.59923077 39.71643406 12.89157176 43.4375 14.1875 C44.46182129 14.54352295 45.48614258 14.8995459 46.54150391 15.26635742 C52.73338192 17.43809146 58.80256846 19.74296455 64.8203125 22.359375 C67.1876491 23.34893692 69.55472374 24.16357418 72 24.9375 C74.87794238 25.84876261 77.41232149 26.93291108 80.0625 28.375 C84.32537107 30.6177153 88.73671434 31.62105693 93.41796875 32.6640625 C96.15910589 33.35218244 98.65479466 34.26480247 101.25 35.375 C101.25 36.035 101.25 36.695 101.25 37.375 C102.260625 37.478125 103.27125 37.58125 104.3125 37.6875 C107.6754982 38.27469016 110.22920867 39.13279098 113.30078125 40.5546875 C115.57874813 41.51335092 117.87506341 42.19234047 120.25 42.875 C124.41461893 44.08367888 128.27442274 45.63132576 132.25 47.375 C135.0254772 48.41128527 137.81119298 49.4147379 140.6015625 50.41015625 C143.17382969 51.34725064 145.71372511 52.34492446 148.25 53.375 C148.25 54.035 148.25 54.695 148.25 55.375 C149.03375 55.2925 149.8175 55.21 150.625 55.125 C155.64940276 55.47151054 159.67653796 57.36093166 164.25 59.375 C168.5341012 61.23509109 172.7921142 62.96152402 177.25 64.375 C177.25 65.035 177.25 65.695 177.25 66.375 C179.23 66.375 181.21 66.375 183.25 66.375 C183.25 67.035 183.25 67.695 183.25 68.375 C183.930625 68.33375 184.61125 68.2925 185.3125 68.25 C188.84924168 68.40049965 191.88323033 69.31875853 195.25 70.375 C195.25 71.035 195.25 71.695 195.25 72.375 C196.11625 72.478125 196.9825 72.58125 197.875 72.6875 C201.25 73.375 201.25 73.375 203.9375 74.75 C207.7376539 76.61422644 211.47360696 77.60135239 215.56640625 78.62890625 C221.00828381 80.14185911 221.00828381 80.14185911 223.25 81.375 C224.90623556 85.56202541 224.19476148 90.14579454 223.875 94.5625 C223.83117187 95.28630859 223.78734375 96.01011719 223.7421875 96.75585938 C223.38375235 102.1074953 223.38375235 102.1074953 222.25 104.375 C222.04243503 107.21172119 221.87592736 110.03463837 221.75 112.875 C221.38513514 121.10472973 221.38513514 121.10472973 220.25 123.375 C220.08817786 125.64350669 219.97168999 127.91528521 219.875 130.1875 C219.4905588 137.6494267 218.52918768 144.9544841 217.41113281 152.33813477 C216.35194444 159.40737547 215.55348294 166.48134478 214.89672852 173.59887695 C214.35192186 179.27307814 214.35192186 179.27307814 213.25 180.375 C213.03841382 183.35777733 212.87358295 186.32591202 212.75 189.3125 C212.68119577 190.96762399 212.60846293 192.62259071 212.53125 194.27734375 C212.50095703 195.01460693 212.47066406 195.75187012 212.43945312 196.51147461 C212.25 198.375 212.25 198.375 211.25 200.375 C211.04243503 203.21172119 210.87592736 206.03463837 210.75 208.875 C210.38513514 217.10472973 210.38513514 217.10472973 209.25 219.375 C209.04126718 222.14940712 208.87533379 224.90926764 208.75 227.6875 C208.53576469 232.36497096 208.20570156 236.78315264 207.25 241.375 C206.9557346 244.97975115 206.74496979 248.58497467 206.53125 252.1953125 C206.25 255.375 206.25 255.375 205.25 258.375 C205.05287777 259.69633496 204.88898239 261.02285367 204.75 262.3515625 C204.6675 263.104375 204.585 263.8571875 204.5 264.6328125 C204.33251733 266.21866403 204.16585853 267.80460278 204 269.390625 C203.35328185 275.27171815 203.35328185 275.27171815 202.25 276.375 C202.10578846 277.77697402 202.02313876 279.18542831 201.96875 280.59375 C201.93136719 281.44324219 201.89398438 282.29273438 201.85546875 283.16796875 C201.80326172 284.50794922 201.80326172 284.50794922 201.75 285.875 C201.68140557 287.63559038 201.60871048 289.39602741 201.53125 291.15625 C201.50095703 291.94064453 201.47066406 292.72503906 201.43945312 293.53320312 C201.25 295.375 201.25 295.375 200.25 296.375 C200.10613896 297.70386073 200.02323712 299.03948587 199.96875 300.375 C199.93136719 301.179375 199.89398438 301.98375 199.85546875 302.8125 C199.82066406 303.658125 199.78585937 304.50375 199.75 305.375 C199.68139491 307.04184971 199.60869777 308.70853774 199.53125 310.375 C199.50095703 311.1175 199.47066406 311.86 199.43945312 312.625 C199.25 314.375 199.25 314.375 198.25 315.375 C198.03812788 318.17053492 197.87351281 320.95037631 197.75 323.75 C197.38357143 331.97428571 197.38357143 331.97428571 196.25 335.375 C196.07003699 337.7059494 195.92972574 340.04005462 195.8125 342.375 C194.73929511 360.46835836 194.73929511 360.46835836 190.25 365.375 C189.59 365.375 188.93 365.375 188.25 365.375 C188.25 366.035 188.25 366.695 188.25 367.375 C185.16190305 369.13962683 184.01687864 369.375 180.25 369.375 C180.25 370.035 180.25 370.695 180.25 371.375 C179.198125 371.808125 178.14625 372.24125 177.0625 372.6875 C172.98549444 374.4347881 169.35259722 376.6661875 165.625 379.0625 C163.25 380.375 163.25 380.375 160.25 380.375 C160.25 381.035 160.25 381.695 160.25 382.375 C158.6 382.375 156.95 382.375 155.25 382.375 C155.25 383.035 155.25 383.695 155.25 384.375 C153.93 384.375 152.61 384.375 151.25 384.375 C151.25 385.035 151.25 385.695 151.25 386.375 C148.48456804 387.88512131 145.71183193 389.38130148 142.9375 390.875 C142.15181641 391.30425781 141.36613281 391.73351562 140.55664062 392.17578125 C139.4206543 392.78486328 139.4206543 392.78486328 138.26171875 393.40625 C137.56522217 393.78330078 136.86872559 394.16035156 136.15112305 394.54882812 C134.25 395.375 134.25 395.375 131.25 395.375 C131.25 396.035 131.25 396.695 131.25 397.375 C129.93 397.375 128.61 397.375 127.25 397.375 C127.25 398.035 127.25 398.695 127.25 399.375 C123.88316085 401.80660605 122.51649636 402.375 118.25 402.375 C118.25 403.035 118.25 403.695 118.25 404.375 C117.00264433 405.0259259 115.75198168 405.67051669 114.5 406.3125 C113.80390625 406.67214844 113.1078125 407.03179687 112.390625 407.40234375 C110.25 408.375 110.25 408.375 108.046875 408.87890625 C107.45390625 409.04261719 106.8609375 409.20632813 106.25 409.375 C105.92 410.035 105.59 410.695 105.25 411.375 C102.62418862 412.95048683 101.37900213 413.375 98.25 413.375 C98.25 414.035 98.25 414.695 98.25 415.375 C96.93 415.375 95.61 415.375 94.25 415.375 C94.25 416.035 94.25 416.695 94.25 417.375 C92.93 417.375 91.61 417.375 90.25 417.375 C90.25 418.035 90.25 418.695 90.25 419.375 C81.988041 423.78274487 81.988041 423.78274487 77.25 424.375 C77.25 425.035 77.25 425.695 77.25 426.375 C74.60261084 427.8356285 73.35551666 428.375 70.25 428.375 C70.25 429.035 70.25 429.695 70.25 430.375 C68.93 430.375 67.61 430.375 66.25 430.375 C66.25 431.035 66.25 431.695 66.25 432.375 C65.21875 432.7875 64.1875 433.2 63.125 433.625 C60.4580212 434.75105771 58.49739564 435.89149319 56.0625 437.5625 C53.25 439.375 53.25 439.375 49.25 439.375 C49.25 440.035 49.25 440.695 49.25 441.375 C48.08984375 441.93767578 48.08984375 441.93767578 46.90625 442.51171875 C41.37053994 445.2316159 36.03331949 447.96031667 30.96875 451.4921875 C29.25 452.375 29.25 452.375 25.25 452.375 C25.25 453.035 25.25 453.695 25.25 454.375 C22.34399739 455.63164978 20.45395416 456.375 17.25 456.375 C16.92 457.365 16.59 458.355 16.25 459.375 C11.51443224 462.79559464 5.54752877 466.49301989 -0.4921875 466.05078125 C-5.94609002 464.41838482 -10.8920244 461.27793664 -15.75 458.375 C-15.75 457.715 -15.75 457.055 -15.75 456.375 C-16.33773193 456.24375732 -16.92546387 456.11251465 -17.53100586 455.97729492 C-21.00748503 455.03368461 -24.11615757 453.31550674 -27.3125 451.6875 C-28.02124268 451.33026855 -28.72998535 450.97303711 -29.46020508 450.60498047 C-34.50789256 448.04657135 -39.48799839 445.38097886 -44.41796875 442.6015625 C-46.8097775 441.34355924 -49.22539604 440.33461856 -51.75 439.375 C-51.75 438.715 -51.75 438.055 -51.75 437.375 C-52.513125 437.25125 -53.27625 437.1275 -54.0625 437 C-56.75 436.375 -56.75 436.375 -59.75 434.375 C-59.75 433.715 -59.75 433.055 -59.75 432.375 C-61.4 432.375 -63.05 432.375 -64.75 432.375 C-64.75 431.715 -64.75 431.055 -64.75 430.375 C-66.07 430.375 -67.39 430.375 -68.75 430.375 C-68.75 429.715 -68.75 429.055 -68.75 428.375 C-70.07 428.375 -71.39 428.375 -72.75 428.375 C-72.75 427.715 -72.75 427.055 -72.75 426.375 C-73.30300781 426.2615625 -73.85601562 426.148125 -74.42578125 426.03125 C-85.25633655 422.97321086 -95.83849777 415.65956872 -105.75 410.375 C-105.75 409.715 -105.75 409.055 -105.75 408.375 C-107.07 408.375 -108.39 408.375 -109.75 408.375 C-109.75 407.715 -109.75 407.055 -109.75 406.375 C-110.3275 406.25125 -110.905 406.1275 -111.5 406 C-114.48976372 405.16951008 -117.02006363 403.7627787 -119.75 402.3125 C-121.72974696 401.29829787 -121.72974696 401.29829787 -123.9375 400.875 C-124.535625 400.71 -125.13375 400.545 -125.75 400.375 C-126.08 399.715 -126.41 399.055 -126.75 398.375 C-128.49186758 397.28329363 -128.49186758 397.28329363 -130.5625 396.3125 C-131.24957031 395.97089844 -131.93664062 395.62929688 -132.64453125 395.27734375 C-134.66917319 394.40964006 -136.60157081 393.84330928 -138.75 393.375 C-138.75 392.715 -138.75 392.055 -138.75 391.375 C-140.07 391.375 -141.39 391.375 -142.75 391.375 C-142.75 390.715 -142.75 390.055 -142.75 389.375 C-143.33136719 389.25898438 -143.91273438 389.14296875 -144.51171875 389.0234375 C-146.89982511 388.33159517 -148.50539506 387.38257562 -150.5625 386 C-154.15991518 383.67694592 -157.79758406 382.03917513 -161.75 380.375 C-163.81526746 379.27878585 -165.8431743 378.12576186 -167.875 376.96875 C-170.23453037 375.66074947 -172.60610438 374.39923427 -175 373.15625 C-175.75941895 372.76066895 -176.51883789 372.36508789 -177.30126953 371.95751953 C-178.83124093 371.16247451 -180.36342312 370.37166721 -181.89794922 369.58544922 C-182.60967285 369.21436035 -183.32139648 368.84327148 -184.0546875 368.4609375 C-184.69390137 368.1314209 -185.33311523 367.8019043 -185.99169922 367.46240234 C-190.25607096 364.82514718 -191.63740379 361.89359123 -193.08496094 357.23291016 C-194.47326518 351.26687143 -194.86071903 345.15424581 -195.375 339.0625 C-195.61262064 336.3784669 -195.85677063 333.6951166 -196.1015625 331.01171875 C-196.20291504 329.83311279 -196.30426758 328.65450684 -196.40869141 327.44018555 C-196.68422057 324.96574447 -197.12294436 322.76962086 -197.75 320.375 C-198.00373517 316.9601475 -198.1901457 313.55059722 -198.35546875 310.13085938 C-198.52396599 307.00203993 -198.75368883 304.36393352 -199.75 301.375 C-199.88353531 300.01503928 -199.97323879 298.65042528 -200.03125 297.28515625 C-200.08732422 296.10856445 -200.08732422 296.10856445 -200.14453125 294.90820312 C-200.17933594 294.09287109 -200.21414062 293.27753906 -200.25 292.4375 C-200.31920256 290.82405516 -200.39199857 289.21075961 -200.46875 287.59765625 C-200.49904297 286.88359619 -200.52933594 286.16953613 -200.56054688 285.43383789 C-200.75451895 283.32589136 -201.23069363 281.42370055 -201.75 279.375 C-201.97268967 276.07707204 -202.1404359 272.78501861 -202.26757812 269.48242188 C-202.50020741 264.84300379 -203.39833803 260.84627724 -204.75 256.375 C-206.42744909 246.85780619 -207.16489902 237.19527217 -207.99780273 227.57543945 C-208.48442396 222.03025417 -209.07181975 216.51671926 -209.8125 211 C-210.71571124 204.16946502 -211.17418528 197.38484977 -211.50390625 190.5078125 C-211.5449599 187.47191733 -211.5449599 187.47191733 -212.75 185.375 C-212.95757376 182.72555153 -213.12398372 180.09084277 -213.25 177.4375 C-213.47846375 171.8264804 -213.47846375 171.8264804 -214.75 166.375 C-215.07457841 163.62493566 -215.362772 160.88105839 -215.625 158.125 C-216.37429939 150.5814668 -217.29507835 143.07433943 -218.3125 135.5625 C-219.32149831 128.07930245 -220.14401501 120.66071336 -220.5390625 113.1171875 C-220.69106014 110.41108453 -220.69106014 110.41108453 -221.2421875 107.9375 C-222.10366274 103.59036341 -222.20886365 99.17874984 -222.4765625 94.76171875 C-222.68696572 92.15572461 -223.03341711 89.84067969 -223.625 87.3125 C-223.75 84.375 -223.75 84.375 -222 81.625 C-218.22020254 79.00821714 -214.9414514 78.16790641 -210.51171875 77.12109375 C-207.99361388 76.44081365 -206.02618966 75.61869126 -203.75 74.375 C-199.7606184 72.21613712 -195.6786388 71.20305561 -191.296875 70.1015625 C-188.54004591 69.39988084 -188.54004591 69.39988084 -185.375 67.6875 C-182.56417035 66.28208517 -180.84640969 66.10178738 -177.75 66.375 C-177.75 65.715 -177.75 65.055 -177.75 64.375 C-176.71875 64.106875 -175.6875 63.83875 -174.625 63.5625 C-172.17068557 62.86686597 -170.23584846 62.11221143 -167.9375 60.9375 C-164.44353987 59.22477444 -161.00339246 58.19860805 -157.2734375 57.12890625 C-154.29985944 56.24051528 -151.42724065 55.17196705 -148.53515625 54.05078125 C-147.0225285 53.47816725 -145.48186963 52.98047055 -143.9375 52.5 C-141.02275367 51.471266 -138.35186738 50.26106667 -135.5625 48.9375 C-130.84469292 46.74571224 -126.20926142 45.32195691 -121.17578125 44.0546875 C-118.14135352 43.20446137 -115.53885292 41.8300537 -112.75 40.375 C-110.48014371 39.5717586 -108.19780633 38.83510828 -105.8984375 38.12109375 C-103.71484675 37.41927322 -103.71484675 37.41927322 -101.6484375 36.29296875 C-99.25388704 35.13510999 -97.37535099 35.22914717 -94.75 35.375 C-94.75 34.715 -94.75 34.055 -94.75 33.375 C-93.9765625 33.20484375 -93.203125 33.0346875 -92.40625 32.859375 C-86.008923 31.37088803 -80.46889159 29.58537778 -74.75 26.375 C-71.22274257 24.42680549 -68.80374365 24.19073892 -64.75 24.375 C-64.75 23.715 -64.75 23.055 -64.75 22.375 C-64.10933594 22.19324219 -63.46867188 22.01148437 -62.80859375 21.82421875 C-57.60491407 20.31197205 -52.71886458 18.55432657 -47.75 16.375 C-44.96678575 15.34525208 -42.17300433 14.34744917 -39.37890625 13.34765625 C-37.28736076 12.5738155 -35.22980874 11.70824945 -33.1875 10.8125 C-30.3224294 9.61437957 -27.60175904 8.72111855 -24.625 7.875 C-21.79405942 7.06190278 -19.71661851 6.35464543 -17.1875 4.8125 C-14.10204518 2.9928728 -11.13655085 2.46451457 -7.640625 1.8046875 C-4.70709002 1.13797501 -3.33334446 0.12524127 0 0 Z M-18.75 38.375 C-22.125 39.0625 -22.125 39.0625 -24.75 39.375 C-24.75 40.035 -24.75 40.695 -24.75 41.375 C-26.2659375 41.5296875 -26.2659375 41.5296875 -27.8125 41.6875 C-31.18205604 42.27583518 -33.74207468 43.13967008 -36.8203125 44.5625 C-38.99300662 45.47731858 -41.16829282 46.11201204 -43.4375 46.75 C-48.35403925 48.17066414 -52.95588808 50.09839542 -57.65625 52.109375 C-62.60023732 54.13191527 -67.66634775 55.7445289 -72.75 57.375 C-74.75069844 58.03956766 -76.75088632 58.70568023 -78.75 59.375 C-78.75 60.035 -78.75 60.695 -78.75 61.375 C-79.61109375 61.31699219 -80.4721875 61.25898437 -81.359375 61.19921875 C-85.25205941 61.40102843 -87.53631413 62.43432895 -91 64.1875 C-95.74536313 66.48746601 -100.28409458 68.2669914 -105.35546875 69.66796875 C-109.60733858 70.92341482 -113.65839054 72.67972256 -117.75 74.375 C-123.04589277 76.51589282 -128.34775374 78.63008371 -133.70410156 80.61547852 C-135.63260415 81.33141784 -137.55857655 82.05416211 -139.484375 82.77734375 C-142.25969381 83.81913105 -145.03821868 84.85145015 -147.8203125 85.875 C-148.48933594 86.1225 -149.15835938 86.37 -149.84765625 86.625 C-151.20609314 87.12754313 -152.56548228 87.62751923 -153.92578125 88.125 C-158.01349174 89.64306657 -161.85376253 91.40499229 -165.75 93.375 C-167.1953362 93.91141344 -168.65341273 94.41547089 -170.125 94.875 C-170.89585937 95.12507813 -171.66671875 95.37515625 -172.4609375 95.6328125 C-173.21632813 95.87773438 -173.97171875 96.12265625 -174.75 96.375 C-180.82287353 98.39929118 -186.22779805 101.14093265 -191.75 104.375 C-191.80404449 107.12526417 -191.84369306 109.87446203 -191.875 112.625 C-191.89175781 113.40230469 -191.90851563 114.17960937 -191.92578125 114.98046875 C-191.96103209 119.1048173 -191.78472738 121.72491653 -189.75 125.375 C-189.40625 128.1953125 -189.40625 128.1953125 -189.25 131.5 C-188.90546516 137.3570923 -188.39832673 143.1686087 -187.75 149 C-187.66685547 149.76973145 -187.58371094 150.53946289 -187.49804688 151.33251953 C-187.04860446 155.40786126 -187.04860446 155.40786126 -186.23632812 159.42138672 C-185.27506702 163.28283821 -185.28554473 167.32151785 -185.03125 171.28125 C-184.85193244 174.20073548 -184.85193244 174.20073548 -184.25 176.27734375 C-183.29229949 180.29519666 -183.34355246 184.50234998 -183.14453125 188.61914062 C-182.97603401 191.74796007 -182.74631117 194.38606648 -181.75 197.375 C-181.62636893 198.84605325 -181.54930986 200.32133415 -181.50390625 201.796875 C-181.47103516 202.65796875 -181.43816406 203.5190625 -181.40429688 204.40625 C-181.34363027 206.20301422 -181.28627877 207.99989377 -181.23242188 209.796875 C-181.02755923 214.99188255 -180.26082956 219.37037709 -178.75 224.375 C-178.49907941 226.78590707 -178.31063592 229.20420022 -178.1875 231.625 C-177.9359333 236.58767677 -177.9359333 236.58767677 -176.75 241.375 C-176.49078305 244.77362227 -176.30806817 248.16632173 -176.14453125 251.5703125 C-175.97629875 254.71451984 -175.75114463 257.37156612 -174.75 260.375 C-174.49209367 263.588083 -174.30803856 266.79500017 -174.14453125 270.01367188 C-173.98299665 273.82015217 -173.98299665 273.82015217 -172.75 277.375 C-172.54284663 279.85796326 -172.37634234 282.32542768 -172.25 284.8125 C-171.99401728 290.16929751 -171.99401728 290.16929751 -170.75 295.375 C-170.491247 298.83222763 -170.30711958 302.28356444 -170.14453125 305.74609375 C-170.27879645 309.36293121 -170.27879645 309.36293121 -168.75 312.375 C-168.61769719 313.73040602 -168.54682217 315.09195354 -168.50390625 316.453125 C-168.47103516 317.28457031 -168.43816406 318.11601562 -168.40429688 318.97265625 C-168.34364365 320.7251473 -168.28629086 322.47775604 -168.23242188 324.23046875 C-168.04895975 328.72355993 -167.71765086 332.25666099 -165.75 336.375 C-165.523125 337.53 -165.29625 338.685 -165.0625 339.875 C-163.38520964 344.34777429 -160.9446799 346.22819448 -156.75 348.375 C-156.09 348.375 -155.43 348.375 -154.75 348.375 C-154.75 349.035 -154.75 349.695 -154.75 350.375 C-153.43 350.375 -152.11 350.375 -150.75 350.375 C-150.75 351.035 -150.75 351.695 -150.75 352.375 C-149.821875 352.74625 -148.89375 353.1175 -147.9375 353.5 C-143.47850913 355.39141621 -139.31479633 357.78171546 -135.10546875 360.16796875 C-132.89446906 361.52701565 -132.89446906 361.52701565 -130.75 361.375 C-130.75 362.035 -130.75 362.695 -130.75 363.375 C-129.698125 363.808125 -128.64625 364.24125 -127.5625 364.6875 C-125.21371887 365.68194362 -123.23937459 366.69562525 -121.0625 368.0625 C-118.61337704 369.70407035 -118.61337704 369.70407035 -114.75 369.375 C-114.75 370.035 -114.75 370.695 -114.75 371.375 C-113.43 371.705 -112.11 372.035 -110.75 372.375 C-110.75 373.035 -110.75 373.695 -110.75 374.375 C-109.43 374.375 -108.11 374.375 -106.75 374.375 C-106.75 375.035 -106.75 375.695 -106.75 376.375 C-105.5125 376.808125 -104.275 377.24125 -103 377.6875 C-99.78765543 378.8751626 -97.48753332 380.32185001 -94.75 382.375 C-93.43 382.375 -92.11 382.375 -90.75 382.375 C-90.75 383.035 -90.75 383.695 -90.75 384.375 C-87.84451118 386.41669485 -86.34857954 387.375 -82.75 387.375 C-82.75 388.035 -82.75 388.695 -82.75 389.375 C-81.615625 389.74625 -80.48125 390.1175 -79.3125 390.5 C-75.97216918 391.74086233 -73.23565069 393.27967514 -70.3125 395.3125 C-66.78737644 397.76033622 -63.36321241 399.52087373 -59.41796875 401.17578125 C-55.8435822 402.78242352 -52.39649675 404.59774975 -48.9375 406.4375 C-48.29087402 406.7782959 -47.64424805 407.1190918 -46.97802734 407.47021484 C-44.34988137 408.8771467 -41.88934903 410.26436231 -39.55078125 412.12109375 C-37.56862128 413.75595302 -37.56862128 413.75595302 -33.75 413.375 C-33.75 414.035 -33.75 414.695 -33.75 415.375 C-32.71875 415.7875 -31.6875 416.2 -30.625 416.625 C-27.9580212 417.75105771 -25.99739564 418.89149319 -23.5625 420.5625 C-20.74727593 422.73613422 -20.74727593 422.73613422 -16.75 422.375 C-16.75 423.035 -16.75 423.695 -16.75 424.375 C-14.10261084 425.8356285 -12.85551666 426.375 -9.75 426.375 C-9.75 427.035 -9.75 427.695 -9.75 428.375 C-3.56546992 431.18615003 0.59058028 431.65447184 7.25 430.375 C7.25 429.715 7.25 429.055 7.25 428.375 C7.930625 428.2925 8.61125 428.21 9.3125 428.125 C11.93725985 427.45484855 13.52804183 426.73385874 15.8125 425.375 C18.60330951 423.75125629 20.26383676 423.12154081 23.25 422.375 C23.9615625 421.6634375 23.9615625 421.6634375 24.6875 420.9375 C26.6559332 418.9690668 28.64887205 418.28890982 31.25 417.375 C31.25 416.715 31.25 416.055 31.25 415.375 C31.930625 415.271875 32.61125 415.16875 33.3125 415.0625 C36.87915989 414.22774981 39.91222194 412.88027246 43.25 411.375 C43.25 410.715 43.25 410.055 43.25 409.375 C43.930625 409.1275 44.61125 408.88 45.3125 408.625 C48.16155322 407.41263693 50.75244871 405.94775282 53.421875 404.38671875 C57.82025581 401.95257211 62.57963956 400.21483896 67.25 398.375 C67.25 397.715 67.25 397.055 67.25 396.375 C67.930625 396.1275 68.61125 395.88 69.3125 395.625 C72.15360519 394.41601907 74.71079387 392.93893738 77.3671875 391.375 C79.27555189 390.36142887 81.14669199 389.64177884 83.1875 388.9375 C86.8944192 387.62329358 89.9541264 385.78274565 93.23828125 383.640625 C97.95913696 380.67061092 103.03264434 378.33150837 108.25 376.375 C108.25 375.715 108.25 375.055 108.25 374.375 C109.57 374.375 110.89 374.375 112.25 374.375 C112.25 373.715 112.25 373.055 112.25 372.375 C112.91902344 372.12234375 113.58804687 371.8696875 114.27734375 371.609375 C117.87657509 370.11481902 121.33782461 368.38395051 124.8125 366.625 C126.23045861 365.91143819 127.64842747 365.19789674 129.06640625 364.484375 C129.76781738 364.13052734 130.46922852 363.77667969 131.19189453 363.41210938 C134.20763097 361.89243578 137.22880859 360.38379952 140.25 358.875 C141.219375 358.3903125 142.18875 357.905625 143.1875 357.40625 C143.868125 357.0659375 144.54875 356.725625 145.25 356.375 C145.25 355.715 145.25 355.055 145.25 354.375 C145.78882813 354.26671875 146.32765625 354.1584375 146.8828125 354.046875 C154.00373551 352.02575494 162.44230642 348.09225723 167.25 342.375 C167.82457757 339.71029242 168.05992789 337.20779757 168.14453125 334.484375 C168.25 332.375 168.25 332.375 169.25 331.375 C169.46220322 328.76666878 169.62656339 326.17524168 169.75 323.5625 C170.11768556 315.90238417 170.11768556 315.90238417 170.75 313.38208008 C171.6059494 309.9461621 171.58840291 306.40021062 171.75 302.875 C171.94603053 298.59863028 172.18166433 294.53149346 173.25 290.375 C173.44674028 288.21085687 173.6107321 286.04360016 173.75 283.875 C174.13983569 277.80470136 174.13983569 277.80470136 174.73852539 275.46948242 C175.28786572 273.21994034 175.52322277 271.07672289 175.71484375 268.76953125 C175.79162354 267.87596924 175.86840332 266.98240723 175.94750977 266.06176758 C176.02670654 265.11325928 176.10590332 264.16475098 176.1875 263.1875 C176.8140322 256.01058846 177.4805586 248.84377321 178.3125 241.6875 C178.39169678 240.98794189 178.47089355 240.28838379 178.55249023 239.56762695 C178.89551401 236.68629921 179.32888017 234.1383595 180.25 231.375 C180.45399045 228.72595735 180.62176312 226.0901037 180.75 223.4375 C180.95076865 219.30687098 181.21411628 215.38904941 182.25 211.375 C182.55184218 207.78223961 182.75725955 204.18895808 182.96875 200.58984375 C183.25 197.375 183.25 197.375 184.25 194.375 C184.45322056 191.9194182 184.6146617 189.46025692 184.75 187 C184.9887777 182.67641799 185.3824727 178.60935943 186.25 174.375 C186.39956768 172.35583634 186.52180839 170.33456426 186.625 168.3125 C187.04069369 162.01004727 187.81869377 155.80894375 188.75 149.5625 C188.88067871 148.67232178 189.01135742 147.78214355 189.14599609 146.86499023 C189.27312988 146.03684814 189.40026367 145.20870605 189.53125 144.35546875 C189.70237305 143.24014771 189.70237305 143.24014771 189.87695312 142.10229492 C190.25 140.375 190.25 140.375 191.25 139.375 C191.46158618 136.39222267 191.62641705 133.42408798 191.75 130.4375 C191.81880423 128.78237601 191.89153707 127.12740929 191.96875 125.47265625 C191.99904297 124.73539307 192.02933594 123.99812988 192.06054688 123.23852539 C192.25 121.375 192.25 121.375 193.25 119.375 C193.32181821 116.65739892 193.34299506 113.96640612 193.3125 111.25 C193.30573242 110.11884766 193.30573242 110.11884766 193.29882812 108.96484375 C193.28703499 107.10152873 193.26909942 105.23825445 193.25 103.375 C189.44572508 101.1736134 189.44572508 101.1736134 185.25 100.375 C185.25 99.715 185.25 99.055 185.25 98.375 C181.42679443 96.95241188 178.33718695 96.13457724 174.25 96.375 C174.25 95.715 174.25 95.055 174.25 94.375 C173.52554687 94.19324219 172.80109375 94.01148438 172.0546875 93.82421875 C166.77601297 92.45176337 162.06122336 90.99930365 157.25 88.375 C152.46004918 86.16425347 147.71251299 84.58861112 142.6484375 83.12109375 C139.40778933 82.11300938 136.36566286 80.71795813 133.25 79.375 C131.23343397 78.69553459 129.21215689 78.02996281 127.1875 77.375 C122.98884699 76.00507835 119.16775131 74.42715545 115.25 72.375 C111.41091697 70.88637597 108.37046759 70.13261955 104.25 70.375 C104.25 69.715 104.25 69.055 104.25 68.375 C103.43208984 68.11976562 103.43208984 68.11976562 102.59765625 67.859375 C98.5715269 66.56550779 94.70404108 65.17527248 90.875 63.375 C86.6063858 61.40889574 82.28833929 60.25532978 77.74609375 59.08984375 C74.69112578 58.21494682 72.06282308 56.84255987 69.25 55.375 C66.98014371 54.5717586 64.69780633 53.83510828 62.3984375 53.12109375 C60.25 52.375 60.25 52.375 58.1484375 51.29296875 C55.75388704 50.13510999 53.87535099 50.22914717 51.25 50.375 C51.25 49.715 51.25 49.055 51.25 48.375 C50.10402344 48.06046875 48.95804688 47.7459375 47.77734375 47.421875 C46.24725794 46.99007164 44.71731766 46.55775239 43.1875 46.125 C42.43533203 45.92003906 41.68316406 45.71507812 40.90820312 45.50390625 C37.12415536 44.42274975 33.79485233 43.24123369 30.40625 41.21875 C26.98042172 39.21752358 25.14171359 38.99532062 21.25 39.375 C21.25 38.715 21.25 38.055 21.25 37.375 C20.16332031 37.08496094 20.16332031 37.08496094 19.0546875 36.7890625 C10.7285553 34.54655756 10.7285553 34.54655756 6.9375 33.1875 C-1.86641903 30.52585006 -10.92760191 34.37284284 -18.75 38.375 Z " fill="#ffffff" transform="translate(244.75,13.625)"/>
<path d="M0 0 C7.65377999 -0.05057791 15.30751713 -0.08568184 22.96142578 -0.10986328 C25.56691091 -0.11994064 28.17238469 -0.1336027 30.77783203 -0.15087891 C34.51597899 -0.17505102 38.25397685 -0.1864656 41.9921875 -0.1953125 C43.16304901 -0.20563507 44.33391052 -0.21595764 45.54025269 -0.22659302 C46.62122223 -0.22674408 47.70219177 -0.22689514 48.81591797 -0.22705078 C49.77078094 -0.231492 50.72564392 -0.23593323 51.70944214 -0.24050903 C54 0 54 0 56 2 C56.125 4.625 56.125 4.625 56 7 C56.66 7 57.32 7 58 7 C61.43388443 14.35832377 63.4762043 22.03601114 65 30 C65.66 30 66.32 30 67 30 C68.59138085 34.17737474 69.21278058 37.53160785 69 42 C69.66 42 70.32 42 71 42 C73.82052329 48.48831839 76.38398761 54.90645664 78.328125 61.7109375 C79.95944665 67.26881243 82.23244826 72.55236358 84.5 77.875 C86.47714247 82.56178048 88.07675531 87.23328826 89.421875 92.13671875 C89.8399303 93.99519856 89.8399303 93.99519856 91 95 C91.04080783 96.99958364 91.04254356 99.00045254 91 101 C91.66 101 92.32 101 93 101 C93.27585937 101.85464844 93.55171875 102.70929688 93.8359375 103.58984375 C95.37300216 108.09272111 97.1812641 112.47367983 98.9765625 116.87890625 C99.94333757 119.8272012 100.21711196 121.93186524 100 125 C100.66 125 101.32 125 102 125 C103.42258812 128.82320557 104.24042276 131.91281305 104 136 C104.66 136 105.32 136 106 136 C106.25394531 136.78503906 106.50789062 137.57007813 106.76953125 138.37890625 C108.97711596 145.20901367 108.97711596 145.20901367 111.625 151.875 C113.73783722 156.67690277 115.31156311 160.70342707 115 166 C115.66 166 116.32 166 117 166 C117.268125 166.845625 117.53625 167.69125 117.8125 168.5625 C118.94820656 172.00548757 118.94820656 172.00548757 120.4375 175.25 C121.71050865 178.1350598 122.63200757 181.0313432 123.5 184.0625 C124.63245378 187.97890264 126.14326171 191.36388752 128 195 C128.45827561 196.30539112 128.89342345 197.61900186 129.3125 198.9375 C130.90671791 203.92367092 132.86229416 208.7536218 134.84301758 213.59545898 C139.31829845 224.58892636 139.31829845 224.58892636 139 230 C139.66 230 140.32 230 141 230 C141.26554688 230.80824219 141.53109375 231.61648438 141.8046875 232.44921875 C142.33449219 234.05216797 142.33449219 234.05216797 142.875 235.6875 C143.39707031 237.27111328 143.39707031 237.27111328 143.9296875 238.88671875 C144.92366817 241.95053176 144.92366817 241.95053176 146.1953125 244.58203125 C147.15759416 247.47354749 146.68415111 249.07976137 146 252 C139.80620889 252.00532505 133.61430303 251.97182414 127.42089844 251.90234375 C125.31419263 251.8841769 123.20736754 251.87661648 121.10058594 251.87988281 C118.07132568 251.88273791 115.04454243 251.84744433 112.015625 251.8046875 C111.07382385 251.81378143 110.13202271 251.82287537 109.16168213 251.83224487 C106.63411595 251.77608123 104.43860282 251.66865964 102 251 C99.00226192 247.62284467 97.58217424 244.4679361 96.5 240.125 C95.39754712 236.13233281 93.95877637 232.70703018 92.0390625 229.05078125 C88.65079656 222.36341426 86.43429523 215.40587989 84.61328125 208.15234375 C84.19916287 206.03707236 84.19916287 206.03707236 83 205 C82.95936168 203.33382885 82.957279 201.66611905 83 200 C82.34 200 81.68 200 81 200 C80.67 198.02 80.34 196.04 80 194 C79.34 194 78.68 194 78 194 C78 193.34 78 192.68 78 192 C73.44023563 190.85505893 68.95128208 190.85213211 64.28173828 190.85473633 C62.98077713 190.84969841 62.98077713 190.84969841 61.65353394 190.84455872 C58.79244547 190.83507633 55.93141569 190.83310699 53.0703125 190.83203125 C51.0764056 190.82881687 49.08249894 190.82545266 47.08859253 190.82194519 C42.91078139 190.81596077 38.73299091 190.81410459 34.55517578 190.81469727 C29.20989152 190.81479887 23.86474015 190.80114553 18.51948738 190.78392506 C14.401595 190.77279021 10.2837346 190.77077851 6.1658287 190.77130699 C4.19552019 190.77012916 2.22521079 190.76571846 0.25491714 190.75797462 C-2.50446556 190.7481445 -5.26356161 190.75106469 -8.02294922 190.75708008 C-9.23576569 190.74865082 -9.23576569 190.74865082 -10.4730835 190.74005127 C-16.66447203 190.77423675 -22.64301795 191.62708537 -28 195 C-29.74007609 197.61011413 -30.49692511 199.26919228 -31.375 202.1875 C-32.36130552 205.27593144 -33.47670377 208.07695898 -35 210.9375 C-37.354692 215.42047131 -38.68212111 220.12784169 -40 225 C-40.66 225 -41.32 225 -42 225 C-41.95488281 225.71929687 -41.90976563 226.43859375 -41.86328125 227.1796875 C-42.01767747 230.36466089 -42.80086239 232.26639323 -44.1875 235.125 C-44.59355469 235.97320312 -44.99960938 236.82140625 -45.41796875 237.6953125 C-45.94003906 238.78585937 -46.46210938 239.87640625 -47 241 C-48.6774273 244.6618016 -50.34022561 248.33016756 -52 252 C-58.37203593 252.0505963 -64.7440203 252.08568957 -71.11621094 252.10986328 C-73.28517594 252.11993789 -75.45412731 252.13359798 -77.62304688 252.15087891 C-80.73571126 252.17506323 -83.84819651 252.18646832 -86.9609375 252.1953125 C-87.934935 252.20563507 -88.9089325 252.21595764 -89.91244507 252.22659302 C-90.81322784 252.22674408 -91.71401062 252.22689514 -92.64208984 252.22705078 C-93.83455826 252.23371262 -93.83455826 252.23371262 -95.05111694 252.24050903 C-97 252 -97 252 -99 250 C-98.625 247.375 -98.625 247.375 -98 245 C-97.34 245 -96.68 245 -96 245 C-96.061875 244.29875 -96.12375 243.5975 -96.1875 242.875 C-95.95376577 239.2910752 -94.65436096 237.18617666 -93 234 C-92.51691703 232.65446381 -92.06062565 231.29914132 -91.625 229.9375 C-89.67893415 223.85994675 -87.32324365 217.94125946 -85 212 C-84.34 212 -83.68 212 -83 212 C-83.04125 211.29875 -83.0825 210.5975 -83.125 209.875 C-82.98331668 206.61628372 -82.13265314 204.0440053 -81 201 C-80.34 201 -79.68 201 -79 201 C-79 199.35 -79 197.7 -79 196 C-78.34 196 -77.68 196 -77 196 C-77.061875 195.29875 -77.12375 194.5975 -77.1875 193.875 C-76.9550258 190.31039562 -75.66696158 188.14158143 -74 185 C-73.30028027 183.01132287 -72.62335603 181.01391949 -72 179 C-71.34 179 -70.68 179 -70 179 C-70.04640625 178.28070313 -70.0928125 177.56140625 -70.140625 176.8203125 C-69.98091844 173.61730873 -69.16835464 171.7373422 -67.75 168.875 C-65.9618144 165.12784702 -64.37015027 161.41952824 -63 157.5 C-61.66543149 153.7016127 -60.15345605 150.07942464 -58.4375 146.4375 C-56.78819059 142.91260398 -55.48097249 139.4985615 -54.4375 135.75 C-53.20144525 131.31846281 -51.3855182 127.9245622 -49 124 C-47.80540427 121.34534282 -46.94906045 118.81191552 -46.1875 116 C-43.91345264 107.77011432 -40.44688621 99.80084773 -37 92 C-36.34 92 -35.68 92 -35 92 C-35 90.02 -35 88.04 -35 86 C-34.34 86 -33.68 86 -33 86 C-33 84.35 -33 82.7 -33 81 C-32.34 81 -31.68 81 -31 81 C-31.0515625 80.30519531 -31.103125 79.61039062 -31.15625 78.89453125 C-30.96652781 75.37992762 -29.91314214 72.90239837 -28.5 69.6875 C-28.0359375 68.61886719 -27.571875 67.55023438 -27.09375 66.44921875 C-26.7328125 65.64097656 -26.371875 64.83273438 -26 64 C-25.34 64 -24.68 64 -24 64 C-24.061875 63.319375 -24.12375 62.63875 -24.1875 61.9375 C-23.99429463 58.91061582 -23.18641246 56.75978391 -21.92578125 54.0234375 C-19.24417329 48.16237032 -16.99429228 42.12532628 -15 36 C-14.34588315 34.32836805 -13.68346682 32.65984798 -13 31 C-12.34 31 -11.68 31 -11 31 C-11.04125 30.29875 -11.0825 29.5975 -11.125 28.875 C-10.98331668 25.61628372 -10.13265314 23.0440053 -9 20 C-8.34 20 -7.68 20 -7 20 C-7 18.35 -7 16.7 -7 15 C-6.34 15 -5.68 15 -5 15 C-4.896875 14.113125 -4.79375 13.22625 -4.6875 12.3125 C-3.98060109 8.9065325 -2.83742853 6.90926185 -1 4 C-0.63389815 2.67528934 -0.29454284 1.34243562 0 0 Z M23.3125 64.3125 C20.31904796 66.49691095 19.77750759 68.4814227 18.6796875 71.94140625 C18 74 18 74 16.5 76.6875 C14.1435286 81.89137434 13.16607403 87.42600072 12 93 C11.34 93 10.68 93 10 93 C8.57741188 96.82320557 7.75957724 99.91281305 8 104 C7.34 104 6.68 104 6 104 C5.85304688 104.57105469 5.70609375 105.14210937 5.5546875 105.73046875 C3.76403783 112.20356439 1.21213285 118.01663973 -1.79296875 124.01953125 C-2.98715412 126.96828023 -3.26096848 128.86257892 -3 132 C-3.66 132 -4.32 132 -5 132 C-6.78628454 135.79585466 -7.63812789 138.80658812 -7 143 C-3.47294386 145.6755583 -0.8578508 146.37715683 3.52124023 146.38818359 C5.14333656 146.40236832 5.14333656 146.40236832 6.79820251 146.4168396 C7.95663162 146.41076691 9.11506073 146.40469421 10.30859375 146.3984375 C11.50807144 146.40130768 12.70754913 146.40417786 13.94337463 146.40713501 C16.47763542 146.40917466 19.01191199 146.40365182 21.54614258 146.39111328 C25.41979303 146.37507332 29.29239781 146.39095921 33.16601562 146.41015625 C35.63021063 146.40817353 38.09440499 146.40432925 40.55859375 146.3984375 C41.71499863 146.40451019 42.8714035 146.41058289 44.06285095 146.4168396 C49.85200197 146.36636243 54.11302025 146.2436704 59 143 C59.16677282 139.58343976 59.16677282 139.58343976 59 136 C58.34 135.34 57.68 134.68 57 134 C54.54900263 128.85753004 52.59942759 123.69456207 52 118 C51.34 118 50.68 118 50 118 C50.0825 117.360625 50.165 116.72125 50.25 116.0625 C49.95317118 112.42634699 48.75574875 110.00086704 47.2109375 106.73046875 C45.26102676 102.33373453 43.7553539 97.78357314 42.16796875 93.24609375 C41.27201124 90.75599109 40.33179911 88.34912045 39.25 85.9375 C38.10961016 83.25758387 37.43485793 80.87006231 37 78 C36.34 78 35.68 78 35 78 C35.0928125 76.948125 35.0928125 76.948125 35.1875 75.875 C34.94696231 72.18675544 34.0185913 70.09517333 32 67 C28.85579745 64.81272866 27.1438582 63.86699323 23.3125 64.3125 Z " fill="#ffffff" transform="translate(222,93)"/>
<path d="M0 0 C1.65 0.33 3.3 0.66 5 1 C7.125 7.75 7.125 7.75 6 10 C5.236875 9.814375 4.47375 9.62875 3.6875 9.4375 C0.91032625 8.77180827 0.91032625 8.77180827 -2 10 C-2.22036864 6.14354879 -1.60355101 3.50776784 0 0 Z " fill="#ffffff" transform="translate(247,149)"/>
<path d="M0 0 C0 0.66 0 1.32 0 2 C-1.051875 2.4021875 -1.051875 2.4021875 -2.125 2.8125 C-5.06971834 3.97016343 -5.06971834 3.97016343 -8 5.625 C-11.006678 7.00306075 -12.75064118 7.28670813 -16 7 C-11.38782653 2.16819923 -6.71369779 0 0 0 Z " fill="#ffffff" transform="translate(61,82)"/>
<path d="M0 0 C1.9375 0.6875 1.9375 0.6875 4 2 C4.75 4.625 4.75 4.625 5 7 C4.236875 6.835 3.47375 6.67 2.6875 6.5 C-0.03596236 5.90854604 -0.03596236 5.90854604 -3 6 C-2.01 4.02 -1.02 2.04 0 0 Z " fill="#ffffff" transform="translate(248,152)"/>
<path d="M0 0 C0 0.66 0 1.32 0 2 C-3.37097383 3.49821059 -5.20442119 4 -9 4 C-8.67 3.01 -8.34 2.02 -8 1 C-5.29120665 -0.35439668 -2.99066732 -0.06501451 0 0 Z " fill="#ffffff" transform="translate(32,93)"/>
<path d="M0 0 C0.66 0 1.32 0 2 0 C2 0.66 2 1.32 2 2 C3.32 2 4.64 2 6 2 C6 2.66 6 3.32 6 4 C6.99 4.33 7.98 4.66 9 5 C6 6 6 6 3.375 4.75 C1 3 1 3 0 0 Z " fill="#ffffff" transform="translate(72,385)"/>
<path d="M0 0 C0 0.66 0 1.32 0 2 C-3.50776784 3.60355101 -6.14354879 4.22036864 -10 4 C-7.93026888 -0.13946223 -4.25879356 -0.23659964 0 0 Z " fill="#ffffff" transform="translate(43,89)"/>
<path d="M0 0 C1.65 0 3.3 0 5 0 C4.67 1.32 4.34 2.64 4 4 C2.35 4 0.7 4 -1 4 C-0.67 2.68 -0.34 1.36 0 0 Z " fill="#ffffff" transform="translate(194,282)"/>
<path d="M0 0 C-3.44069624 2.29379749 -4.72290301 3 -9 3 C-8.67 2.01 -8.34 1.02 -8 0 C-5.04215769 -1.22393475 -3.00272755 -0.96516243 0 0 Z " fill="#ffffff" transform="translate(113,64)"/>
</svg>
