<?xml version="1.0" standalone="no"?>
<!DOCTYPE svg PUBLIC "-//W3C//DTD SVG 20010904//EN"
 "http://www.w3.org/TR/2001/REC-SVG-20010904/DTD/svg10.dtd">
<svg version="1.0" xmlns="http://www.w3.org/2000/svg"
 width="64.000000pt" height="64.000000pt" viewBox="0 0 64.000000 64.000000"
 preserveAspectRatio="xMidYMid meet">

<g transform="translate(0.000000,64.000000) scale(0.100000,-0.100000)"
fill="#FFFFFF" stroke="none">
<path d="M243 604 c-35 -20 -63 -40 -63 -46 0 -5 29 6 65 26 36 20 70 36 75
36 11 0 240 -127 255 -141 5 -5 -90 -9 -253 -9 -144 0 -262 2 -262 5 0 2 20
16 45 31 75 43 51 49 -27 6 -89 -49 -99 -74 -44 -116 l36 -27 0 -125 c0 -69
-4 -134 -10 -144 -5 -10 -21 -21 -35 -24 -22 -6 -26 -11 -23 -39 l3 -32 315 0
315 0 3 32 c3 28 -1 33 -23 39 -14 3 -30 14 -35 24 -6 10 -10 75 -10 144 l0
125 36 27 c63 48 51 64 -121 160 -82 46 -157 84 -165 83 -8 0 -43 -16 -77 -35z
m377 -169 c0 -13 -40 -15 -300 -15 -260 0 -300 2 -300 15 0 13 40 15 300 15
260 0 300 -2 300 -15z m-450 -43 c0 -16 -25 -32 -50 -32 -25 0 -50 16 -50 32
0 4 23 8 50 8 28 0 50 -4 50 -8z m284 -17 c10 -15 16 -46 16 -85 0 -33 4 -60
10 -60 6 0 10 27 10 61 0 60 0 60 28 57 l27 -3 3 -107 3 -108 -31 0 c-28 0
-30 3 -30 35 0 19 -4 35 -10 35 -5 0 -10 -19 -10 -42 0 -70 -15 -78 -148 -78
-155 0 -152 -3 -152 152 0 169 -1 168 150 168 114 0 118 -1 134 -25z m116 17
c0 -16 -25 -32 -50 -32 -25 0 -50 16 -50 32 0 4 23 8 50 8 28 0 50 -4 50 -8z
m-420 -152 l0 -110 -30 0 -30 0 0 103 c0 57 3 107 7 110 3 4 17 7 30 7 23 0
23 -1 23 -110z m14 -145 c4 -12 -4 -15 -46 -15 -44 0 -49 2 -38 15 7 8 27 15
45 15 20 0 35 -6 39 -15z m396 0 c11 -13 6 -15 -38 -15 -42 0 -50 3 -46 15 4
9 19 15 39 15 18 0 38 -7 45 -15z m60 -55 c0 -20 -7 -20 -300 -20 -293 0 -300
0 -300 20 0 20 7 20 300 20 293 0 300 0 300 -20z"/>
<path d="M250 313 c-84 -76 -8 -208 102 -177 46 13 81 68 74 114 -8 50 -55 90
-106 90 -29 0 -48 -7 -70 -27z m115 1 c19 -8 45 -55 45 -84 0 -33 -53 -80 -90
-80 -37 0 -90 47 -90 80 0 26 25 77 42 83 19 8 74 8 93 1z"/>
<path d="M297 292 c-21 -23 -22 -51 -2 -58 8 -4 15 -12 15 -20 0 -8 -6 -11
-15 -8 -21 9 -19 -9 5 -29 19 -16 21 -16 40 0 24 21 26 46 5 63 -8 7 -15 20
-15 29 0 14 2 14 10 1 5 -8 12 -11 16 -7 7 7 -23 47 -36 47 -4 0 -14 -8 -23
-18z m10 -34 c-3 -8 -6 -5 -6 6 -1 11 2 17 5 13 3 -3 4 -12 1 -19z"/>
<path d="M287 573 c-11 -11 -8 -48 5 -61 30 -30 75 0 64 43 -5 19 -13 25 -35
25 -15 0 -31 -3 -34 -7z m53 -33 c0 -13 -7 -20 -20 -20 -13 0 -20 7 -20 20 0
13 7 20 20 20 13 0 20 -7 20 -20z"/>
</g>
</svg>
