<?xml version="1.0" standalone="no"?>
<!DOCTYPE svg PUBLIC "-//W3C//DTD SVG 20010904//EN"
 "http://www.w3.org/TR/2001/REC-SVG-20010904/DTD/svg10.dtd">
<svg version="1.0" xmlns="http://www.w3.org/2000/svg"
 width="48.000000pt" height="48.000000pt" viewBox="0 0 48.000000 48.000000"
 preserveAspectRatio="xMidYMid meet">

<g transform="translate(0.000000,48.000000) scale(0.100000,-0.100000)"
fill="#FFFFFF" stroke="none">
<path d="M192 469 c-91 -18 -161 -88 -183 -183 -22 -100 31 -210 125 -258 57
-30 155 -30 212 0 84 43 144 154 128 237 -10 53 -28 37 -35 -31 -9 -93 -46
-147 -121 -179 -133 -55 -278 41 -278 185 0 108 87 200 189 200 42 0 63 16 40
31 -16 10 -18 10 -77 -2z"/>
<path d="M345 470 c-10 -15 4 -30 28 -30 19 0 17 -5 -18 -40 -30 -31 -36 -43
-27 -52 9 -9 21 -4 51 26 38 37 39 38 43 15 1 -13 10 -24 18 -24 12 0 15 13
15 55 l0 55 -52 3 c-28 2 -54 -2 -58 -8z"/>
<path d="M227 374 c-4 -4 -7 -16 -7 -26 0 -10 -7 -18 -15 -18 -8 0 -22 -11
-31 -25 -15 -23 -15 -27 0 -49 10 -16 30 -28 58 -33 51 -10 59 -36 14 -41 -22
-3 -34 3 -47 20 -14 18 -21 20 -30 11 -9 -9 -8 -18 5 -37 9 -15 23 -26 31 -26
7 0 15 -10 17 -23 2 -12 10 -22 18 -22 8 0 16 10 18 23 2 12 10 22 17 22 8 0
22 11 31 25 15 23 15 27 0 49 -10 16 -30 28 -58 33 -51 10 -59 36 -14 41 22 3
34 -3 47 -20 14 -18 21 -20 30 -11 9 9 8 18 -5 37 -9 15 -23 26 -31 26 -7 0
-15 10 -17 22 -3 22 -19 33 -31 22z"/>
</g>
</svg>
