<?xml version="1.0" encoding="UTF-8"?>
<svg version="1.1" xmlns="http://www.w3.org/2000/svg" width="64" height="64">
<path d="M0 0 C3.37082558 1.44463953 5.58037292 3.24663125 8 6 C8.33 6.99 8.66 7.98 9 9 C9.70125 8.525625 10.4025 8.05125 11.125 7.5625 C14.89986003 5.51094563 17.85542384 4.41654913 22.125 5.578125 C27.55688202 7.55688202 27.55688202 7.55688202 29 9 C29.4125 8.2575 29.825 7.515 30.25 6.75 C31.93745618 4.09828315 33.70872089 2.13325986 36 0 C39.34998521 1.11666174 39.79340222 1.74694925 41.6875 4.5625 C42.12449219 5.20316406 42.56148437 5.84382812 43.01171875 6.50390625 C43.33785156 6.99761719 43.66398437 7.49132812 44 8 C43.67 8.66 43.34 9.32 43 10 C42.34 10 41.68 10 41 10 C41.01160156 10.85464844 41.02320313 11.70929687 41.03515625 12.58984375 C41.04417969 13.69457031 41.05320313 14.79929687 41.0625 15.9375 C41.07410156 17.03964844 41.08570313 18.14179688 41.09765625 19.27734375 C41 22 41 22 40 23 C38.39125 22.814375 38.39125 22.814375 36.75 22.625 C33.09347783 22.5574577 33.09347783 22.5574577 31.7421875 24.44921875 C31.37351563 25.06410156 31.00484375 25.67898437 30.625 26.3125 C28.1940509 30.21314054 25.82171107 31.57254372 21.40625 32.75 C17.11877666 33.19545178 13.65045296 32.27346481 10 30 C8.60007247 28.22362137 7.48567225 26.39323941 6.328125 24.453125 C5.08141571 22.80823384 5.08141571 22.80823384 2.921875 22.546875 C0.43843258 22.52295191 0.43843258 22.52295191 -3 23 C-3 18.71 -3 14.42 -3 10 C-3.99 9.67 -4.98 9.34 -6 9 C-4.47291037 5.56404834 -2.40072955 2.88087546 0 0 Z M1 4 C-1.49310643 7.73965964 -1.0603261 9.29070641 -0.625 13.6875 C-0.51414062 14.86699219 -0.40328125 16.04648437 -0.2890625 17.26171875 C-0.19367187 18.16535156 -0.09828125 19.06898437 0 20 C0.99 20 1.98 20 3 20 C3 15.05 3 10.1 3 5 C2.34 4.67 1.68 4.34 1 4 Z M36 4 C33.50689357 7.73965964 33.9396739 9.29070641 34.375 13.6875 C34.48585937 14.86699219 34.59671875 16.04648437 34.7109375 17.26171875 C34.80632813 18.16535156 34.90171875 19.06898437 35 20 C35.99 20 36.98 20 38 20 C38.33 15.38 38.66 10.76 39 6 C38.01 5.34 37.02 4.68 36 4 Z M10.1875 12.3125 C8.40881668 14.84010262 8.18366647 16.93889211 8 20 C9.06612332 24.47771794 11.18565819 26.51624254 15 29 C18.42030125 30.31550048 19.66066361 30.12894783 23.125 28.8125 C26.76989743 26.52589258 26.76989743 26.52589258 29 23 C29.50784552 18.42939031 29.62962938 16.15851807 27.4375 12.125 C21.17594054 6.66620457 16.47910289 7.7565117 10.1875 12.3125 Z M6 10 C6.33 10.99 6.66 11.98 7 13 C7.33 12.01 7.66 11.02 8 10 C7.34 10 6.68 10 6 10 Z M30 10 C30.66 11.32 31.32 12.64 32 14 C32 12.68 32 11.36 32 10 C31.34 10 30.68 10 30 10 Z " fill="#FFFFFF" transform="translate(20,3)"/>
<path d="M0 0 C1.84765625 0.9140625 1.84765625 0.9140625 3.84765625 3.9140625 C6.98298935 2.73831259 9.89975015 1.36351235 12.84765625 -0.2109375 C15.98138098 -1.79553793 18.27697527 -2.71605767 21.84765625 -2.0859375 C23.84765625 -0.0859375 23.84765625 -0.0859375 24.546875 2.6484375 C23.71495629 6.5338232 23.03821749 6.87660629 19.8671875 9.0546875 C18.14493696 10.11330636 16.40843952 11.14901255 14.66015625 12.1640625 C13.79583984 12.69257812 12.93152344 13.22109375 12.04101562 13.765625 C1.60995631 20.06422633 1.60995631 20.06422633 -2.58203125 19.70703125 C-3.38898437 19.50722656 -4.1959375 19.30742188 -5.02734375 19.1015625 C-9.07082516 18.16332954 -13.03758513 17.45077015 -17.15234375 16.9140625 C-17.48234375 18.5640625 -17.81234375 20.2140625 -18.15234375 21.9140625 C-20.13234375 22.5740625 -22.11234375 23.2340625 -24.15234375 23.9140625 C-27.48508878 20.05781106 -29.7173432 16.15442846 -31.90234375 11.6015625 C-32.21816406 10.95638672 -32.53398438 10.31121094 -32.859375 9.64648438 C-33.62926083 8.07171791 -34.39159266 6.4932621 -35.15234375 4.9140625 C-31.47265625 0.9453125 -31.47265625 0.9453125 -28.58984375 0.6640625 C-27.78546875 0.7465625 -26.98109375 0.8290625 -26.15234375 0.9140625 C-22.94560404 1.1894836 -22.94560404 1.1894836 -20.02734375 -1.1484375 C-13.60753185 -4.95177144 -6.64334289 -2.13243105 0 0 Z M-19.96484375 2.4140625 C-21.15013672 3.11015625 -21.15013672 3.11015625 -22.359375 3.8203125 C-22.95105469 4.18125 -23.54273438 4.5421875 -24.15234375 4.9140625 C-22.89681063 8.64456736 -21.66846838 11.97487025 -18.22119141 14.11035156 C-15.80819417 14.98579391 -13.48696751 15.56068763 -10.96484375 16.0390625 C-10.08441406 16.21445557 -9.20398437 16.38984863 -8.296875 16.57055664 C0.60300451 17.83568858 6.34624485 14.57970817 13.44140625 9.53515625 C14.57846468 8.66359604 15.71408868 7.79015817 16.84765625 6.9140625 C17.66234375 6.36878906 18.47703125 5.82351562 19.31640625 5.26171875 C19.82171875 4.81699219 20.32703125 4.37226562 20.84765625 3.9140625 C20.84765625 2.9240625 20.84765625 1.9340625 20.84765625 0.9140625 C16.40251599 1.47891458 13.54480449 3.23023542 9.78515625 5.6015625 C3.66567754 9.02065551 -0.12884591 9.34091083 -6.88671875 7.79296875 C-9.15234375 6.9140625 -9.15234375 6.9140625 -10.15234375 4.9140625 C-6.85234375 5.2440625 -3.55234375 5.5740625 -0.15234375 5.9140625 C-0.79282751 2.81604787 -0.79282751 2.81604787 -3.04296875 1.96484375 C-3.8215625 1.72121094 -4.60015625 1.47757813 -5.40234375 1.2265625 C-6.170625 0.97519531 -6.93890625 0.72382812 -7.73046875 0.46484375 C-12.68749292 -0.66247949 -15.59977661 -0.19194773 -19.96484375 2.4140625 Z M-28.15234375 6.9140625 C-28.81234375 7.5740625 -29.47234375 8.2340625 -30.15234375 8.9140625 C-28.17234375 12.5440625 -26.19234375 16.1740625 -24.15234375 19.9140625 C-22.83234375 19.5840625 -21.51234375 19.2540625 -20.15234375 18.9140625 C-22.13234375 14.9540625 -24.11234375 10.9940625 -26.15234375 6.9140625 C-26.81234375 6.9140625 -27.47234375 6.9140625 -28.15234375 6.9140625 Z " fill="#FFFFFF" transform="translate(35.15234375,37.0859375)"/>
<path d="M0 0 C0 0.66 0 1.32 0 2 C1.32 2.66 2.64 3.32 4 4 C4 4.99 4 5.98 4 7 C3.01 7 2.02 7 1 7 C1 6.34 1 5.68 1 5 C-0.32 5 -1.64 5 -3 5 C-3 5.66 -3 6.32 -3 7 C-2.030625 7.309375 -1.06125 7.61875 -0.0625 7.9375 C3 9 3 9 4 10 C4.04063832 11.66617115 4.042721 13.33388095 4 15 C2.68 15.33 1.36 15.66 0 16 C0 16.66 0 17.32 0 18 C-2.46800047 16.84826645 -4.04783565 15.95216435 -6 14 C-6 13.01 -6 12.02 -6 11 C-3.69 11.66 -1.38 12.32 1 13 C1 12.34 1 11.68 1 11 C-0.98 10.34 -2.96 9.68 -5 9 C-5.75 6.75 -5.75 6.75 -6 4 C-2.86486486 0 -2.86486486 0 0 0 Z " fill="#FFFFFF" transform="translate(40,13)"/>
</svg>
