<?xml version="1.0" encoding="UTF-8"?>
<svg version="1.1" xmlns="http://www.w3.org/2000/svg" width="64" height="64">
<path d="M0 0 C0.12375 0.70125 0.2475 1.4025 0.375 2.125 C1.56276432 7.9084766 1.56276432 7.9084766 4.625 12.8125 C6.79948977 16.27191554 6.53960207 20.01955879 6 24 C4.45940181 27.84804121 2.71444688 29.14277656 -1 31 C-2.3272044 31.3569557 -3.6599202 31.694918 -5 32 C-0.09310241 33.95022457 -0.09310241 33.95022457 4.890625 33.2421875 C5.50421875 32.87351563 6.1178125 32.50484375 6.75 32.125 C11.90247078 29.05412742 17.18020982 29.65081259 23 30 C23.66 31.32 24.32 32.64 25 34 C21.37291044 39.12059703 17.43870528 42.22909465 12 45.3125 C11.40687012 45.64958984 10.81374023 45.98667969 10.20263672 46.33398438 C-0.36286731 52.12089944 -9.7686417 51.84078377 -21.3125 49.44140625 C-24.93683759 48.84612987 -28.43998582 48.89451053 -32.1015625 49.02734375 C-34 49 -34 49 -35 48 C-35.09986975 45.15664952 -35.13877881 42.34302837 -35.125 39.5 C-35.12886719 38.70207031 -35.13273437 37.90414062 -35.13671875 37.08203125 C-35.12660767 31.12660767 -35.12660767 31.12660767 -34 30 C-32.00056665 29.95239444 -29.99965715 29.96296931 -28 30 C-22.56092198 30.04797423 -17.38552187 29.73024025 -12 29 C-12.66 28.54625 -13.32 28.0925 -14 27.625 C-16.65915864 24.13485428 -16.55883672 21.67697953 -16.40234375 17.3828125 C-15.85109304 14.11812381 -14.1125017 12.49659291 -12 10 C-11.63181536 7.64196355 -11.500824 5.37378464 -11.46875 2.98828125 C-11 1 -11 1 -9.203125 -0.29296875 C-5.97221755 -1.32983798 -3.28045258 -0.63085626 0 0 Z M-8 3 C-8 3.66 -8 4.32 -8 5 C-6.02 5 -4.04 5 -2 5 C-2 4.34 -2 3.68 -2 3 C-5.04913228 1.98888907 -5.04913228 1.98888907 -8 3 Z M-13 15 C-14.3309316 18.39969811 -14.3309316 18.39969811 -14 22 C-12.14799711 25.28581158 -10.8001617 27.4603137 -7.05859375 28.58203125 C-2.79945652 28.92955099 -1.29536444 28.24714167 2.0625 25.4375 C4.26865703 22.13968453 4.26865703 22.13968453 4.125 18.4375 C2.78253065 14.33551031 1.47621856 12.54922694 -2 10 C-7.43716006 8.86725832 -9.7752443 10.66961378 -13 15 Z M-32 32 C-31 34 -31 34 -31 34 Z M-24 34 C-24.07226502 35.85287502 -24.0838122 37.70833878 -24.0625 39.5625 C-24.05347656 40.57441406 -24.04445313 41.58632813 -24.03515625 42.62890625 C-24.02355469 43.41136719 -24.01195312 44.19382812 -24 45 C-15.51712197 48.63551916 -5.60590588 49.87757613 3.265625 46.90625 C14.14015761 41.67943262 14.14015761 41.67943262 22 33 C17.60754973 33.40413193 14.79820043 34.57474218 11.15307617 37.03564453 C5.5179529 40.81912419 1.67911278 42.6645019 -5.3125 41.625 C-8.55078125 40.9140625 -8.55078125 40.9140625 -11 40 C-11.33 39.34 -11.66 38.68 -12 38 C-11.00419922 38.23396484 -11.00419922 38.23396484 -9.98828125 38.47265625 C-9.10527344 38.66730469 -8.22226562 38.86195312 -7.3125 39.0625 C-6.00732422 39.35833984 -6.00732422 39.35833984 -4.67578125 39.66015625 C-1.83998724 40.02032279 0.24789982 39.70909969 3 39 C2.13897388 36.73763896 2.13897388 36.73763896 -0.51953125 35.9296875 C-12.54028361 31.7349596 -12.54028361 31.7349596 -24 34 Z M-32 35 C-32 38.96 -32 42.92 -32 47 C-30.35 47 -28.7 47 -27 47 C-27 43.04 -27 39.08 -27 35 C-28.65 35 -30.3 35 -32 35 Z " fill="#FFFFFF" transform="translate(37,13)"/>
<path d="M0 0 C0.66 0 1.32 0 2 0 C4.13586678 3.20380017 4.23132175 4.01939967 4.125 7.6875 C4.10695313 8.49574219 4.08890625 9.30398437 4.0703125 10.13671875 C4.03550781 11.05904297 4.03550781 11.05904297 4 12 C3.34 12 2.68 12 2 12 C2 12.66 2 13.32 2 14 C1.34 14 0.68 14 0 14 C0 13.34 0 12.68 0 12 C-0.66 12 -1.32 12 -2 12 C-2.05422947 10.5629191 -2.09289723 9.12524538 -2.125 7.6875 C-2.14820312 6.88699219 -2.17140625 6.08648437 -2.1953125 5.26171875 C-2 3 -2 3 0 0 Z M0 8 C0 8.66 0 9.32 0 10 C0.66 9.67 1.32 9.34 2 9 C1.34 8.67 0.68 8.34 0 8 Z " fill="#FFFFFF" transform="translate(31,25)"/>
<path d="M0 0 C0.66 0 1.32 0 2 0 C2 2.97 2 5.94 2 9 C1.34 9 0.68 9 0 9 C0 6.03 0 3.06 0 0 Z " fill="#FFFFFF" transform="translate(43,9)"/>
<path d="M0 0 C0.66 0 1.32 0 2 0 C2 2.97 2 5.94 2 9 C1.34 9 0.68 9 0 9 C0 6.03 0 3.06 0 0 Z " fill="#FFFFFF" transform="translate(19,9)"/>
<path d="M0 0 C0.66 0 1.32 0 2 0 C2 2.64 2 5.28 2 8 C1.34 8 0.68 8 0 8 C0 5.36 0 2.72 0 0 Z " fill="#FFFFFF" transform="translate(37,3)"/>
<path d="M0 0 C0.66 0 1.32 0 2 0 C2 2.64 2 5.28 2 8 C1.34 8 0.68 8 0 8 C0 5.36 0 2.72 0 0 Z " fill="#FFFFFF" transform="translate(25,3)"/>
<path d="M0 0 C0.66 0 1.32 0 2 0 C2 2.64 2 5.28 2 8 C1.34 8 0.68 8 0 8 C0 5.36 0 2.72 0 0 Z " fill="#FFFFFF" transform="translate(31,0)"/>
</svg>
