<?xml version="1.0" standalone="no"?>
<!DOCTYPE svg PUBLIC "-//W3C//DTD SVG 20010904//EN"
 "http://www.w3.org/TR/2001/REC-SVG-20010904/DTD/svg10.dtd">
<svg version="1.0" xmlns="http://www.w3.org/2000/svg"
 width="50.000000pt" height="50.000000pt" viewBox="0 0 50.000000 50.000000"
 preserveAspectRatio="xMidYMid meet">

<g transform="translate(0.000000,50.000000) scale(0.100000,-0.100000)"
fill="#FFFFFF" stroke="none">
<path d="M188 476 c-61 -16 -111 -56 -145 -113 -22 -38 -27 -59 -27 -112 0
-71 16 -114 63 -164 89 -97 253 -97 342 0 51 54 77 133 64 193 -11 48 -29 30
-36 -36 -9 -93 -46 -147 -121 -179 -70 -29 -161 -13 -217 38 -56 52 -76 151
-46 225 31 72 85 110 170 121 35 4 50 10 50 21 0 20 -38 22 -97 6z"/>
<path d="M409 454 c-33 -34 -34 -35 -39 -12 -3 13 -12 23 -20 23 -11 0 -15
-14 -15 -55 l0 -55 55 0 c42 0 55 3 55 15 0 8 -11 17 -24 18 -23 4 -23 5 14
42 20 21 34 43 31 49 -11 17 -20 13 -57 -25z"/>
<path d="M237 384 c-4 -4 -7 -15 -7 -25 0 -9 -9 -19 -20 -22 -11 -3 -25 -17
-32 -31 -10 -23 -9 -30 9 -48 12 -11 39 -24 60 -27 46 -8 52 -34 9 -39 -22 -3
-34 3 -47 20 -14 18 -21 20 -30 11 -9 -9 -8 -18 5 -37 9 -15 21 -26 26 -26 6
0 15 -11 20 -25 11 -30 30 -33 37 -6 2 10 18 28 34 40 16 12 29 28 29 35 0 27
-37 59 -76 65 -47 8 -54 34 -10 39 22 3 34 -3 47 -20 14 -18 21 -20 30 -11 9
9 8 18 -5 37 -9 15 -23 26 -31 26 -7 0 -15 10 -17 22 -3 22 -19 33 -31 22z"/>
</g>
</svg>
