<?xml version="1.0" encoding="UTF-8"?>
<svg version="1.1" xmlns="http://www.w3.org/2000/svg" width="128" height="128">
<path d="M0 0 C-0.33484078 2.95447744 -0.89316733 3.90387006 -3.14453125 5.9296875 C-4.02496094 6.57164063 -4.90539062 7.21359375 -5.8125 7.875 C-9.84067669 10.99135446 -12.87307565 13.34102285 -15 18 C-15 21.93259481 -13.76235142 24.47993893 -11.875 27.8125 C-9.87324021 31.66883135 -9.54764114 34.53498706 -10.23828125 38.8125 C-11.56394493 42.61953416 -14.11838283 45.25937939 -17 48 C-10.88514973 48.09706112 -5.06696699 47.77040851 1 47 C0.64489707 49.42991861 0.46450734 50.64985106 -1.5390625 52.16015625 C-15.40368975 58.1577759 -29.18114876 58.40620201 -44 58 C-44 58.99 -44 59.98 -44 61 C-40.27084974 61.02963624 -36.54173987 61.04820435 -32.8125 61.0625 C-31.71510498 61.06797852 -30.61770996 61.07345703 -29.48706055 61.07910156 C-22.71988822 61.08511015 -16.187327 60.82881233 -9.48828125 59.828125 C-5.98589716 60.07004792 -4.44946386 61.58143028 -2 64 C-2 64.66 -2 65.32 -2 66 C-4.01992995 66.4829607 -6.04099354 66.96118112 -8.0625 67.4375 C-9.18785156 67.70433594 -10.31320313 67.97117187 -11.47265625 68.24609375 C-18.31813797 69.70919228 -24.89999128 70.2079185 -31.875 70.25 C-32.72191406 70.270625 -33.56882812 70.29125 -34.44140625 70.3125 C-40.84027601 70.35169675 -47.67061231 69.79561256 -52.75732422 65.52441406 C-54 64 -54 64 -53.9375 61.9375 C-52.73686502 59.45618771 -51.45250613 59.11028949 -49 58 C-49.67546875 57.82984375 -50.3509375 57.6596875 -51.046875 57.484375 C-60.50952986 54.91359593 -60.50952986 54.91359593 -63 51 C-63.0625 48.9375 -63.0625 48.9375 -62 47 C-56.82706632 43.2251565 -52.53779758 42.87462202 -46.25 42.9375 C-44.49429688 42.95103516 -44.49429688 42.95103516 -42.703125 42.96484375 C-41.81109375 42.97644531 -40.9190625 42.98804688 -40 43 C-40 43.99 -40 44.98 -40 46 C-42.31 46.66 -44.62 47.32 -47 48 C-45.95128747 49.27305556 -45.95128747 49.27305556 -43.59155273 49.11352539 C-42.54942627 49.10828857 -41.5072998 49.10305176 -40.43359375 49.09765625 C-39.30888672 49.09443359 -38.18417969 49.09121094 -37.02539062 49.08789062 C-35.84138672 49.07951172 -34.65738281 49.07113281 -33.4375 49.0625 C-32.24962891 49.05798828 -31.06175781 49.05347656 -29.83789062 49.04882812 C-26.89187774 49.03699675 -23.94596319 49.02051287 -21 49 C-20.75285663 47.2645253 -20.53124289 45.52540354 -20.3203125 43.78515625 C-20.19414551 42.81715088 -20.06797852 41.84914551 -19.93798828 40.85180664 C-20.02991951 36.6240559 -22.05894835 34.50332446 -24.546875 31.25390625 C-27.04778785 27.37480218 -27.4151498 23.53645505 -27 19 C-23.61475532 9.48907446 -13.69247622 5.12256839 -5.12890625 0.84765625 C-3 0 -3 0 0 0 Z " fill="#FFFFFF" transform="translate(89,26)"/>
<path d="M0 0 C0 0.99 0 1.98 0 3 C-2.64 3.99 -5.28 4.98 -8 6 C1.70908273 7.81700777 11.21231906 8.35919812 21.0625 8.3125 C22.1404332 8.3117598 22.1404332 8.3117598 23.24014282 8.31100464 C35.04812365 8.28625546 46.41042498 7.29885712 58 5 C59.99897128 4.66055205 61.99857072 4.32464128 64 4 C64 3.01 64 2.02 64 1 C65.9375 1.3125 65.9375 1.3125 68 2 C68.495 3.485 68.495 3.485 69 5 C65.48911227 10.83361244 61.10362577 11.52888713 54.83984375 13.15234375 C49.26124381 14.38383529 43.66638121 15.2846429 38 16 C55.29674107 14.77047037 55.29674107 14.77047037 71 8 C71.99 8 72.98 8 74 8 C73.52300119 12.29298926 71.20196975 14.28528652 68 17 C57.67844714 22.80587348 44.80249841 22.32754702 33.26196289 22.26074219 C31.06824004 22.25002803 28.87533877 22.26070195 26.68164062 22.2734375 C16.77704942 22.28288036 6.4786071 22.1595357 -3 19 C-2.67 18.01 -2.34 17.02 -2 16 C-2.95261719 15.82984375 -3.90523437 15.6596875 -4.88671875 15.484375 C-6.14097656 15.24203125 -7.39523438 14.9996875 -8.6875 14.75 C-10.54955078 14.40195313 -10.54955078 14.40195313 -12.44921875 14.046875 C-16.15643863 12.95387728 -18.18832479 11.60200918 -21 9 C-20.875 6.6875 -20.875 6.6875 -20 4 C-13.6877773 -0.11028455 -7.2692739 -0.12533231 0 0 Z " fill="#FFFFFF" transform="translate(37,106)"/>
<path d="M0 0 C0.99 0 1.98 0 3 0 C6.43867858 6.73407889 7.11728727 12.2538015 4.9375 19.5625 C0.57308778 27.30581201 -5.58236636 32.51368114 -12.546875 37.921875 C-16.61591548 41.3010148 -16.61591548 41.3010148 -18.25 46.12109375 C-17.54796467 52.62588988 -15.59264968 58.19197426 -13.05859375 64.21484375 C-12 67 -12 67 -12 70 C-17.82510028 69.16595155 -21.34947862 64.24775741 -25 60 C-28.1276442 55.36802694 -30 50.63964536 -30 45 C-27.19575587 33.05744984 -18.33743596 26.9657261 -8.734375 20.2734375 C-3.72135649 16.10547069 -1.60484334 12.03632508 -0.75 5.625 C-0.60046875 4.56539063 -0.4509375 3.50578125 -0.296875 2.4140625 C-0.19890625 1.61742188 -0.1009375 0.82078125 0 0 Z " fill="#FFFFFF" transform="translate(75,0)"/>
<path d="M0 0 C0 0.99 0 1.98 0 3 C2.93757232 3.02739705 5.87485396 3.04795991 8.8125 3.0625 C9.68165039 3.06870361 10.55080078 3.07490723 11.44628906 3.08129883 C16.13293102 3.08959609 20.6043504 2.87815758 25.25 2.1875 C29.12249 1.72835922 30.98840336 2.18229524 34.1875 4.4375 C35.115625 5.283125 36.04375 6.12875 37 7 C32.88301112 11.72593257 26.93414137 12.7023007 20.87060547 13.16113281 C-1.96296572 14.12902986 -1.96296572 14.12902986 -9 8 C-9.5625 5.5 -9.5625 5.5 -9 3 C-6.19926731 -0.00819437 -4.01012625 -0.33417719 0 0 Z " fill="#FFFFFF" transform="translate(48,97)"/>
<path d="M0 0 C3.97234329 2.3315928 5.833968 4.54787782 7 9 C7.64272147 12.21360734 7.49821367 14.10882907 5.890625 16.984375 C1.07873263 23.32082733 -5.38219171 26.1161366 -13 28 C-13.99 27.67 -14.98 27.34 -16 27 C-13.83202258 24.08156886 -11.76684293 21.8096677 -8.9375 19.5 C-6.1165283 17.09917302 -4.47245901 15.37799421 -3 12 C-2.99743852 9.91068309 -2.99743852 9.91068309 -4 8 C-6.31315325 6.85706445 -6.31315325 6.85706445 -9.0625 6.25 C-9.98160156 6.00765625 -10.90070313 5.7653125 -11.84765625 5.515625 C-12.55792969 5.34546875 -13.26820312 5.1753125 -14 5 C-13 2 -13 2 -10.9375 0.8125 C-7.18715668 -0.224829 -3.85895997 -0.63274445 0 0 Z " fill="#FFFFFF" transform="translate(105,67)"/>
</svg>
