<?xml version="1.0" encoding="UTF-8"?>
<svg version="1.1" xmlns="http://www.w3.org/2000/svg" width="128" height="128">
<path d="M0 0 C7.05179171 5.67772936 10.27477053 12.66688794 11.75 21.5234375 C12.01993389 26.30617188 11.98290901 31.07816298 11.9453125 35.8671875 C11.94157576 37.24580682 11.93873191 38.62442882 11.93673706 40.00305176 C11.92915258 43.60664384 11.90954962 47.21007105 11.8873291 50.81359863 C11.86675803 54.50070934 11.85760131 58.18784784 11.84765625 61.875 C11.82736297 69.09129075 11.78820398 76.30713061 11.75 83.5234375 C2.84 83.5234375 -6.07 83.5234375 -15.25 83.5234375 C-15.29898438 79.92308594 -15.34796875 76.32273437 -15.3984375 72.61328125 C-15.45249278 69.11494903 -15.50978249 65.61668364 -15.56738281 62.1184082 C-15.60559604 59.69267788 -15.64046211 57.26689237 -15.671875 54.84106445 C-15.71769153 51.34826983 -15.77565941 47.85585261 -15.8359375 44.36328125 C-15.84748871 43.2838475 -15.85903992 42.20441376 -15.87094116 41.0922699 C-15.97947319 35.51794289 -16.39774923 30.79009401 -18.25 25.5234375 C-18.745 24.0384375 -18.745 24.0384375 -19.25 22.5234375 C-24.68963124 20.25692448 -29.53078318 20.0936333 -35.25 21.5234375 C-38.36072912 23.07880206 -39.75558907 24.33427882 -41.09577942 27.55770874 C-43.15323746 34.12096787 -43.71784538 40.14545224 -43.76171875 47 C-43.77966995 48.05126068 -43.79762115 49.10252136 -43.81611633 50.18563843 C-43.86981472 53.506532 -43.90398467 56.82728523 -43.9375 60.1484375 C-43.97070881 62.41538395 -44.0052017 64.68231196 -44.04101562 66.94921875 C-44.12790826 72.47397402 -44.18832395 77.99811453 -44.25 83.5234375 C-53.16 83.5234375 -62.07 83.5234375 -71.25 83.5234375 C-71.25 55.1434375 -71.25 26.7634375 -71.25 -2.4765625 C-62.67 -2.4765625 -54.09 -2.4765625 -45.25 -2.4765625 C-44.92 0.4934375 -44.59 3.4634375 -44.25 6.5234375 C-43.70472656 5.98074219 -43.15945312 5.43804687 -42.59765625 4.87890625 C-31.27271215 -5.86527149 -13.75066011 -9.0238707 0 0 Z " fill="#FFFFFF" transform="translate(116.25,44.4765625)"/>
<path d="M0 0 C8.91 0 17.82 0 27 0 C27 28.38 27 56.76 27 86 C18.09 86 9.18 86 0 86 C0 57.62 0 29.24 0 0 Z " fill="#FFFFFF" transform="translate(2,42)"/>
<path d="M0 0 C4.004793 2.0023965 6.6587028 4.17998877 9 8 C10.53377179 12.60131537 10.90474832 17.34779492 9.31640625 22.00390625 C7.03800803 26.38107794 4.45546591 28.97478822 0 31 C-5.3018646 31.76643944 -9.56248558 31.67955227 -14.4375 29.375 C-19.10863357 25.04565669 -21.23861982 21.92123974 -21.5 15.5 C-21.23861982 9.07876026 -19.10863357 5.95434331 -14.4375 1.625 C-9.57367567 -0.67426241 -5.29109998 -0.78736607 0 0 Z " fill="#FFFFFF" transform="translate(21,0)"/>
</svg>
