<?xml version="1.0" encoding="UTF-8"?>
<svg version="1.1" xmlns="http://www.w3.org/2000/svg" width="128" height="109">
<path d="M0 0 C0.97019073 -0.00860046 1.94038147 -0.01720093 2.93997192 -0.02606201 C4.54982468 -0.03245193 4.54982468 -0.03245193 6.19219971 -0.03897095 C7.31572845 -0.04714844 8.4392572 -0.05532593 9.59683228 -0.06375122 C13.3333685 -0.08866464 17.06986659 -0.10513663 20.80645752 -0.11953735 C22.71538662 -0.12752287 22.71538662 -0.12752287 24.66287994 -0.13566971 C30.01065407 -0.15691288 35.35841476 -0.17604224 40.70621872 -0.1872921 C48.37311914 -0.2035254 56.03951221 -0.23667818 63.70622134 -0.29369295 C69.7445101 -0.33706705 75.78256796 -0.35303776 81.82102203 -0.35942459 C84.39030823 -0.36615507 86.95958653 -0.3814233 89.52877045 -0.4053154 C93.12270403 -0.43682934 96.71535252 -0.43702356 100.30938721 -0.42959595 C101.37452545 -0.44600128 102.4396637 -0.46240662 103.53707886 -0.47930908 C110.78444022 -0.41788383 110.78444022 -0.41788383 114.64709473 2.62786865 C115.56902618 3.87825424 115.56902618 3.87825424 116.50958252 5.15390015 C117.00458252 5.64890015 117.00458252 5.64890015 117.50958252 6.15390015 C117.63112578 8.56090508 117.68816207 10.93975674 117.70245361 13.34823608 C117.71471985 14.47757568 117.71471985 14.47757568 117.72723389 15.62973022 C117.75213698 18.13257033 117.76861801 20.63535347 117.78302002 23.13827515 C117.7883437 23.99165718 117.79366737 24.84503922 117.79915237 25.72428131 C117.82590776 30.24280399 117.84527329 34.76129883 117.85968018 39.27987671 C117.87631671 43.94865739 117.92107877 48.61673059 117.97205162 53.28524399 C118.00570845 56.87292289 118.01725599 60.46043378 118.02290726 64.04825592 C118.0296262 65.76906987 118.04486506 67.48987251 118.06879807 69.21053314 C118.10041515 71.62160255 118.10049225 74.03076384 118.09307861 76.44198608 C118.10948395 77.15179626 118.12588928 77.86160645 118.14279175 78.59292603 C118.09332082 82.52832061 117.6194096 84.02429479 115.03561401 87.07339478 C114.20202362 87.75996155 113.36843323 88.44652832 112.50958252 89.15390015 C112.17958252 89.48390015 111.84958252 89.81390015 111.50958252 90.15390015 C110.01569407 90.26046786 108.51681738 90.29795915 107.01916504 90.30780029 C105.56387894 90.32070099 105.56387894 90.32070099 104.07919312 90.3338623 C103.00595795 90.33812225 101.93272278 90.3423822 100.82696533 90.34677124 C99.70343658 90.35494873 98.57990784 90.36312622 97.42233276 90.37155151 C93.68579654 90.39646494 89.94929845 90.41293692 86.21270752 90.42733765 C84.94008812 90.43266132 83.66746872 90.437985 82.3562851 90.44347 C77.00851097 90.46471317 71.66075028 90.48384254 66.31294632 90.49509239 C58.6460459 90.51132569 50.97965283 90.54447848 43.3129437 90.60149324 C37.27465494 90.64486734 31.23659708 90.66083806 25.19814301 90.66722488 C22.62885681 90.67395536 20.05957851 90.68922359 17.49039459 90.71311569 C13.89646101 90.74462964 10.30381252 90.74482385 6.70977783 90.73739624 C5.11207047 90.76200424 5.11207047 90.76200424 3.48208618 90.78710938 C-3.76527518 90.72568413 -3.76527518 90.72568413 -7.62792969 87.67993164 C-8.24255066 86.84634125 -8.85717163 86.01275085 -9.49041748 85.15390015 C-9.82041748 84.82390015 -10.15041748 84.49390015 -10.49041748 84.15390015 C-10.61196075 81.74689521 -10.66899703 79.36804355 -10.68328857 76.95956421 C-10.69146606 76.20667114 -10.69964355 75.45377808 -10.70806885 74.67807007 C-10.73297194 72.17522996 -10.74945297 69.67244682 -10.76385498 67.16952515 C-10.76917866 66.31614311 -10.77450233 65.46276108 -10.77998734 64.58351898 C-10.80674272 60.06499631 -10.82610825 55.54650147 -10.84051514 51.02792358 C-10.85715167 46.3591429 -10.90191373 41.6910697 -10.95288658 37.0225563 C-10.98654341 33.43487741 -10.99809095 29.84736652 -11.00374222 26.25954437 C-11.01046116 24.53873042 -11.02570002 22.81792778 -11.04963303 21.09726715 C-11.08125011 18.68619774 -11.08132721 16.27703646 -11.07391357 13.86581421 C-11.09031891 13.15600403 -11.10672424 12.44619385 -11.12362671 11.71487427 C-11.07415578 7.77947968 -10.60024456 6.2835055 -8.01644897 3.23440552 C-7.18285858 2.54783875 -6.34926819 1.86127197 -5.49041748 1.15390015 C-3.89274267 -0.44377467 -2.21444727 0.01455124 0 0 Z M4.50958252 8.15390015 C9.35615905 13.837934 9.35615905 13.837934 14.44781494 19.2215271 C15.15842575 19.93529007 15.86903656 20.64905304 16.60118103 21.38444519 C17.34825821 22.12949814 18.09533539 22.87455109 18.86505127 23.6421814 C19.64850418 24.42659103 20.43195709 25.21100067 21.239151 26.0191803 C22.8843003 27.66500635 24.53069808 29.30958529 26.17828369 30.95297241 C28.70328912 33.47259351 31.22287781 35.99754347 33.74200439 38.52304077 C35.34519923 40.1255753 36.94870397 41.72779986 38.55255127 43.3296814 C39.30570114 44.0848555 40.05885101 44.8400296 40.83482361 45.61808777 C41.53597794 46.31608994 42.23713226 47.0140921 42.95953369 47.73324585 C43.57431076 48.34722733 44.18908783 48.9612088 44.82249451 49.59379578 C47.54955855 52.11559932 49.39488995 53.13176649 53.07208252 53.84140015 C63.6684788 53.41820813 76.14419655 35.66846174 83.21759033 28.57626343 C85.66012279 26.12830312 88.10804215 23.68581875 90.55645752 21.2437439 C92.10625802 19.69328378 93.65574893 18.14251413 95.20489502 16.59140015 C95.93910675 15.85921265 96.67331848 15.12702515 97.42977905 14.37265015 C98.09822845 13.70104858 98.76667786 13.02944702 99.4553833 12.3374939 C100.34279709 11.44888672 100.34279709 11.44888672 101.24813843 10.54232788 C102.62165753 9.34319182 102.62165753 9.34319182 102.50958252 8.15390015 C70.16958252 8.15390015 37.82958252 8.15390015 4.50958252 8.15390015 Z M-2.49041748 15.15390015 C-2.49041748 34.95390015 -2.49041748 54.75390015 -2.49041748 75.15390015 C2.92410947 70.57226031 2.92410947 70.57226031 7.94708252 65.71640015 C10.33859297 63.28227927 12.7941405 61.00001182 15.38458252 58.77890015 C19.99804326 54.80770551 24.25200708 50.50017507 28.50958252 46.15390015 C25.83163741 40.18702245 20.78041481 36.20902814 15.88458252 32.02890015 C11.27856605 28.07699252 7.05724151 23.75400903 2.81378174 19.42098999 C1.39620862 17.98152385 -0.04497662 16.56538058 -1.49041748 15.15390015 C-1.82041748 15.15390015 -2.15041748 15.15390015 -2.49041748 15.15390015 Z M106.77886963 16.78695679 C106.03902832 17.53839966 105.29918701 18.28984253 104.53692627 19.0640564 C103.31006104 20.30252319 103.31006104 20.30252319 102.05841064 21.56600952 C100.34466447 23.30539139 98.6311162 25.04496826 96.91778564 26.78475952 C92.48253443 31.26149399 88.00635262 35.59720033 83.20318604 39.67904663 C81.56330065 41.10712038 80.02804404 42.59828261 78.50958252 44.15390015 C80.17519838 48.48660976 83.38405044 51.28914014 86.63458252 54.46640015 C87.22062256 55.04599487 87.8066626 55.6255896 88.41046143 56.2227478 C92.06893169 59.81666276 95.81046763 63.27184741 99.72442627 66.5874939 C102.3394653 68.88209051 104.74735732 71.36617243 107.16192627 73.8687439 C108.31982998 75.26892122 108.31982998 75.26892122 109.50958252 75.15390015 C109.50958252 55.35390015 109.50958252 35.55390015 109.50958252 15.15390015 C108.23421294 15.03951864 108.23421294 15.03951864 106.77886963 16.78695679 Z M29.8223114 55.70222473 C29.17125931 56.35530106 28.52020721 57.00837738 27.84942627 57.6812439 C27.18495987 58.34475357 26.52049347 59.00826324 25.83589172 59.69187927 C24.42828318 61.09880572 23.02194307 62.50700215 21.61676025 63.91635132 C19.45649313 66.08196624 17.29095809 68.24220942 15.12481689 70.40194702 C13.76186592 71.76555877 12.39922516 73.12948068 11.03692627 74.4937439 C10.38384995 75.14479599 9.73077362 75.79584808 9.0579071 76.46662903 C5.98476464 78.93027037 5.98476464 78.93027037 4.50958252 82.15390015 C36.84958252 82.15390015 69.18958252 82.15390015 102.50958252 82.15390015 C98.65463423 77.65646048 94.86359145 73.36647676 90.67364502 69.2203064 C90.14942963 68.69750595 89.62521423 68.17470551 89.08511353 67.63606262 C87.43730382 65.99377669 85.78602351 64.35503365 84.13458252 62.71640015 C83.00544297 61.59228548 81.87653474 60.46793841 80.74786377 59.34335327 C78.00443064 56.6108478 75.25788267 53.88151006 72.50958252 51.15390015 C72.03109863 51.56599731 71.55261475 51.97809448 71.05963135 52.40267944 C70.43081055 52.94319946 69.80198975 53.48371948 69.15411377 54.0406189 C68.53125488 54.57646606 67.908396 55.11231323 67.2666626 55.66439819 C62.02325699 60.10930824 57.33450689 61.29999944 50.50958252 61.15390015 C44.47320626 60.13701956 40.89505848 57.02220286 36.85723877 52.5796814 C36.41251221 52.10917358 35.96778564 51.63866577 35.50958252 51.15390015 C33.14320208 51.15390015 31.42870341 54.10426438 29.8223114 55.70222473 Z " fill="#ffffff" transform="translate(10.49041748046875,18.846099853515625)"/>
<path d="M0 0 C0.556875 0.268125 1.11375 0.53625 1.6875 0.8125 C0.5428125 1.4621875 0.5428125 1.4621875 -0.625 2.125 C-4.17084214 4.35145902 -5.99114005 6.33046008 -8.3125 9.8125 C-8.00654824 6.24306285 -7.28825359 4.78235581 -5 1.9375 C-2.3125 -0.1875 -2.3125 -0.1875 0 0 Z " fill="#ffffff" transform="translate(8.3125,19.1875)"/>
</svg>
