<?xml version="1.0" encoding="UTF-8"?>
<svg version="1.1" xmlns="http://www.w3.org/2000/svg" width="128" height="128">
<path d="M0 0 C6.52336098 4.18345976 11.50078087 8.50234262 14 16 C15.7707686 34.86884577 8.30413167 51.56842032 0 68 C0.74765625 67.94199219 1.4953125 67.88398437 2.265625 67.82421875 C10.29640936 67.45631633 10.29640936 67.45631633 13.75 70.125 C15.35755265 73.8223711 15.46428243 75.22369269 14 79 C10.04875025 83.67791638 4.98831331 86.75553702 -1 88 C-4.35202532 88.21579562 -7.64750432 88.18548644 -11 88 C-11.03738281 88.88300781 -11.07476562 89.76601562 -11.11328125 90.67578125 C-12.25215051 111.46572802 -12.25215051 111.46572802 -20.0625 119.40625 C-25.84844049 124.16565266 -31.87951466 124.34112331 -39.16796875 124.3984375 C-43.26864758 123.82151441 -45.88589565 122.3616831 -48.51171875 119.15234375 C-52.90341237 110.87961856 -53.32966075 102.18464824 -54 93 C-54.59965576 93.08161377 -55.19931152 93.16322754 -55.81713867 93.24731445 C-56.6135376 93.3474585 -57.40993652 93.44760254 -58.23046875 93.55078125 C-59.01574951 93.65302002 -59.80103027 93.75525879 -60.61010742 93.8605957 C-65.13992963 94.12482376 -69.27750109 92.95694384 -73.25 90.75 C-74.11625 90.37875 -74.11625 90.37875 -75 90 C-75.60714844 90.31324219 -76.21429688 90.62648438 -76.83984375 90.94921875 C-80.61437978 92.78529505 -84.06856591 92.21274747 -88 91 C-101.49375206 82.53226085 -105.53208902 60.0173364 -108.875 45.5 C-109.93266954 39.69540882 -110.30274801 34.01066968 -110.375 28.125 C-110.38901855 27.35220703 -110.40303711 26.57941406 -110.41748047 25.78320312 C-110.34503817 17.12727697 -107.99084579 10.06494616 -102.03125 3.7265625 C-95.43690037 -1.87863469 -87.41227773 -3.25865064 -79.01171875 -3.24609375 C-75.37797884 -2.94917337 -71.98651488 -2.14190869 -68.4375 -1.3125 C-63.06445912 -0.09430194 -59.63564228 0.04546725 -54.58984375 -2.23046875 C-50.12735203 -3.55642783 -45.55795918 -3.18957405 -40.93798828 -3.0637207 C-3.65641011 -2.09200645 -3.65641011 -2.09200645 0 0 Z " fill="#000000" transform="translate(112,4)"/>
<path d="M0 0 C5.95480593 4.30749513 10.91690898 8.64895561 13.77734375 15.57421875 C13.77734375 16.56421875 13.77734375 17.55421875 13.77734375 18.57421875 C12.74673828 18.72117187 12.74673828 18.72117187 11.6953125 18.87109375 C10.79425781 19.020625 9.89320312 19.17015625 8.96484375 19.32421875 C8.07152344 19.4634375 7.17820313 19.60265625 6.2578125 19.74609375 C3.18267666 20.77275328 2.3132221 21.74680634 0.77734375 24.57421875 C-0.59558127 31.7356925 1.50058229 37.33412519 4.77734375 43.57421875 C5.67395112 45.38141179 6.57045125 47.18865936 7.46459961 48.99707031 C8.88717242 51.86369711 10.33338886 54.71831782 11.77734375 57.57421875 C12.4448716 58.90712114 13.11199493 60.24022731 13.77734375 61.57421875 C12.78734375 61.90421875 11.79734375 62.23421875 10.77734375 62.57421875 C9.35123431 65.42643764 9.27312302 68.17235644 8.91015625 71.33984375 C8.74523168 72.7188027 8.57985242 74.09770732 8.4140625 75.4765625 C8.15700444 77.64613257 7.90328315 79.81591415 7.65771484 81.98681641 C7.418622 84.0849879 7.16539267 86.18108289 6.91015625 88.27734375 C6.76465332 89.53192383 6.61915039 90.78650391 6.46923828 92.07910156 C5.51920641 96.87820399 3.80545529 101.55799997 -0.22265625 104.57421875 C-4.62700262 106.17172743 -8.70034593 107.12484163 -13.16015625 105.51171875 C-18.41234881 100.57784089 -19.06766402 95.41581199 -19.34570312 88.52441406 C-19.46879215 83.71436868 -19.58181404 78.9048841 -19.65234375 74.09375 C-19.68328125 72.91683594 -19.71421875 71.73992187 -19.74609375 70.52734375 C-19.76591309 69.45645508 -19.78573242 68.38556641 -19.80615234 67.28222656 C-20.00769065 64.5698303 -20.00769065 64.5698303 -21.56494141 62.76464844 C-23.32806522 61.37435803 -23.32806522 61.37435803 -26.22265625 60.57421875 C-25.73163996 57.43171451 -24.95332896 54.94026374 -23.69921875 51.98828125 C-21.90772869 47.26923426 -21.81093092 42.95017541 -21.91015625 37.94921875 C-21.90693359 37.129375 -21.90371094 36.30953125 -21.90039062 35.46484375 C-21.94145346 30.82101066 -22.2857728 26.87914121 -24.22265625 22.57421875 C-27.82479826 19.85064796 -30.47976643 19.38527101 -34.84765625 19.82421875 C-37.69041349 20.2431514 -40.44399587 20.84497756 -43.22265625 21.57421875 C-39.60908452 3.07991374 -39.60908452 3.07991374 -32.22265625 -2.42578125 C-22.22784186 -8.70761924 -9.3824965 -6.0186489 0 0 Z " fill="#ffffff" transform="translate(85.22265625,14.42578125)"/>
<path d="M0 0 C0 3.62085045 -0.85851084 4.20358007 -3 7 C-7.2653927 15.93736211 -7.69706673 24.93798283 -7.83886719 34.63916016 C-7.87537993 37.02482358 -7.94349043 39.40814143 -8.015625 41.79296875 C-8.05131243 43.32027076 -8.08523237 44.84761534 -8.1171875 46.375 C-8.13683563 47.08229248 -8.15648376 47.78958496 -8.17672729 48.51831055 C-8.21789943 52.27028583 -7.87987036 54.75992831 -6 58 C-6 58.99 -6 59.98 -6 61 C-5.34 61 -4.68 61 -4 61 C-3.505 62.485 -3.505 62.485 -3 64 C-4.26965531 65.43854058 -5.54077218 66.87579127 -6.8125 68.3125 C-7.52019531 69.11300781 -8.22789063 69.91351563 -8.95703125 70.73828125 C-9.96830078 71.85783203 -9.96830078 71.85783203 -11 73 C-11.47824219 73.59167969 -11.95648438 74.18335937 -12.44921875 74.79296875 C-14 76 -14 76 -16.50390625 76.40625 C-19 76 -19 76 -20.58984375 74.59375 C-31.62443447 57.45015399 -38.40770935 33.35608816 -36 13 C-34.67721633 8.15835491 -32.85689538 4.28860886 -29 1 C-19.54309113 -3.69944551 -9.91184053 -2.36197051 0 0 Z " fill="#ffffff" transform="translate(46,11)"/>
<path d="M0 0 C6.52336098 4.18345976 11.50078087 8.50234262 14 16 C15.7707686 34.86884577 8.30413167 51.56842032 0 68 C0.74765625 67.94199219 1.4953125 67.88398437 2.265625 67.82421875 C10.29640936 67.45631633 10.29640936 67.45631633 13.75 70.125 C15.35755265 73.8223711 15.46428243 75.22369269 14 79 C10.04875025 83.67791638 4.98831331 86.75553702 -1 88 C-4.35202532 88.21579562 -7.64750432 88.18548644 -11 88 C-11.03738281 88.88300781 -11.07476562 89.76601562 -11.11328125 90.67578125 C-12.25215051 111.46572802 -12.25215051 111.46572802 -20.0625 119.40625 C-25.84844049 124.16565266 -31.87951466 124.34112331 -39.16796875 124.3984375 C-43.26864758 123.82151441 -45.88589565 122.3616831 -48.51171875 119.15234375 C-52.90341237 110.87961856 -53.32966075 102.18464824 -54 93 C-54.59965576 93.08161377 -55.19931152 93.16322754 -55.81713867 93.24731445 C-56.6135376 93.3474585 -57.40993652 93.44760254 -58.23046875 93.55078125 C-59.01574951 93.65302002 -59.80103027 93.75525879 -60.61010742 93.8605957 C-65.13992963 94.12482376 -69.27750109 92.95694384 -73.25 90.75 C-74.11625 90.37875 -74.11625 90.37875 -75 90 C-75.60714844 90.31324219 -76.21429688 90.62648438 -76.83984375 90.94921875 C-80.61437978 92.78529505 -84.06856591 92.21274747 -88 91 C-101.49375206 82.53226085 -105.53208902 60.0173364 -108.875 45.5 C-109.93266954 39.69540882 -110.30274801 34.01066968 -110.375 28.125 C-110.38901855 27.35220703 -110.40303711 26.57941406 -110.41748047 25.78320312 C-110.34503817 17.12727697 -107.99084579 10.06494616 -102.03125 3.7265625 C-95.43690037 -1.87863469 -87.41227773 -3.25865064 -79.01171875 -3.24609375 C-75.37797884 -2.94917337 -71.98651488 -2.14190869 -68.4375 -1.3125 C-63.06445912 -0.09430194 -59.63564228 0.04546725 -54.58984375 -2.23046875 C-50.12735203 -3.55642783 -45.55795918 -3.18957405 -40.93798828 -3.0637207 C-3.65641011 -2.09200645 -3.65641011 -2.09200645 0 0 Z M-35.140625 0.52734375 C-38.62774912 1.10376727 -41.90723606 0.98340114 -45.4375 0.875 C-51.35419855 0.71453231 -51.35419855 0.71453231 -56.875 2.625 C-61.37428944 4.60468735 -64.42453662 3.29556131 -69 2 C-77.97974729 0.33708383 -87.70368235 -0.42992056 -96 4 C-101.47826469 8.12468567 -105.26952093 13.18245101 -106.31591797 20.08349609 C-106.47806561 22.41935457 -106.51817067 24.72104605 -106.5 27.0625 C-106.49500488 27.92447998 -106.49000977 28.78645996 -106.48486328 29.67456055 C-106.01020408 47.88346946 -100.73229317 72.96080213 -87.0625 86.0625 C-84.18657931 88.21147991 -84.18657931 88.21147991 -81.0625 88.25 C-76.12306924 86.23390581 -72.76750341 82.47450477 -69.69140625 78.16796875 C-68.5 76.5 -68.5 76.5 -66 74 C-62.1875 74.125 -62.1875 74.125 -59 75 C-61.31881505 77.67901932 -63.31814468 78.66204403 -66.6875 79.6875 C-67.49574219 79.93886719 -68.30398437 80.19023438 -69.13671875 80.44921875 C-69.75160156 80.63097656 -70.36648437 80.81273438 -71 81 C-71.33 82.65 -71.66 84.3 -72 86 C-68.84732232 88.79744639 -66.81839431 89.41023861 -62.625 89.375 C-61.70976563 89.38273437 -60.79453125 89.39046875 -59.8515625 89.3984375 C-56.44538386 88.92250569 -53.98699083 87.66531347 -51 86 C-50.98541748 86.55872803 -50.97083496 87.11745605 -50.95581055 87.69311523 C-50.88039202 90.27520052 -50.78405119 92.85612184 -50.6875 95.4375 C-50.65366211 96.75524414 -50.65366211 96.75524414 -50.61914062 98.09960938 C-50.36349074 104.39789293 -49.93589054 111.70786963 -45.54931641 116.62670898 C-41.42397015 120.14156399 -39.0577464 121.19680404 -33.75 120.8125 C-27.96593872 120.19331851 -24.65488326 118.81061664 -20.6015625 114.51953125 C-14.32980741 106.30824496 -14.87829524 93.91340587 -15 84 C-14.17757812 84.05800781 -13.35515625 84.11601563 -12.5078125 84.17578125 C-4.42372895 84.50250518 1.22562778 83.53456964 8 79 C8.66 78.34 9.32 77.68 10 77 C9.67 75.35 9.34 73.7 9 72 C3.72 72 -1.56 72 -7 72 C-5.2365625 68.8753125 -5.2365625 68.8753125 -3.4375 65.6875 C4.65391897 50.82455076 11.97267335 33.22967863 10 16 C6.89294897 9.28876978 0.99499178 4.59965152 -5.6875 1.625 C-14.6756546 -1.3919154 -25.84149482 -1.03407736 -35.140625 0.52734375 Z " fill="#ffffff" transform="translate(112,4)"/>
<path d="M0 0 C3.18475737 2.66094859 5.65772729 4.97318187 7 9 C7.24135095 14.55695857 6.7397991 19.58112769 5.4375 25 C5.26549072 25.72405029 5.09348145 26.44810059 4.91625977 27.1940918 C2.53742626 36.56436262 -1.03304441 46.32432056 -7 54 C-6.96072388 52.48817139 -6.96072388 52.48817139 -6.9206543 50.94580078 C-6.82931759 47.16266581 -6.77245239 43.37962566 -6.7253418 39.59570312 C-6.70038558 37.96630397 -6.66640746 36.33701458 -6.62280273 34.70800781 C-6.37078703 25.04246429 -6.27492774 17.26585045 -12 9 C-12.598125 8.0925 -13.19625 7.185 -13.8125 6.25 C-16.36348557 3.62612913 -19.11850228 1.54540145 -22.09765625 -0.5703125 C-23.90453305 -1.92825276 -25.44577872 -3.36346794 -27 -5 C-17.92758841 -6.89349131 -7.68995517 -5.40044579 0 0 Z " fill="#ffffff" transform="translate(111,13)"/>
<path d="M0 0 C0 0.33 0 0.66 0 1 C-1.65 1 -3.3 1 -5 1 C-4.67 2.32 -4.34 3.64 -4 5 C-0.37114676 5.15149298 -0.37114676 5.15149298 3 4 C5.52796371 15.62448888 3.27898948 25.44202103 -2 36 C-6.40938215 35.49607061 -8.78843816 34.0379639 -12 31 C-14.06929286 27.73945834 -14.235988 25.1828722 -14.1953125 21.359375 C-14.18886719 20.28945313 -14.18242188 19.21953125 -14.17578125 18.1171875 C-14.15902344 17.00601563 -14.14226563 15.89484375 -14.125 14.75 C-14.11597656 13.62335937 -14.10695312 12.49671875 -14.09765625 11.3359375 C-14.07410658 8.55707635 -14.0412168 5.7786461 -14 3 C-8.9413912 0.68627857 -5.71278721 -0.34976248 0 0 Z " fill="#ffffff" transform="translate(56,38)"/>
<path d="M0 0 C1.65 0 3.3 0 5 0 C5 9.57 5 19.14 5 29 C4.34 29 3.68 29 3 29 C1.67551601 26.3178445 0.3653841 23.63012713 -0.9375 20.9375 C-1.49727539 19.80924805 -1.49727539 19.80924805 -2.06835938 18.65820312 C-4.2769147 14.06202043 -5.79748574 10.12818357 -6 5 C-5.34 4.34 -4.68 3.68 -4 3 C-4 3.66 -4 4.32 -4 5 C-2.35 5 -0.7 5 1 5 C1.66 3.68 2.32 2.36 3 1 C2.01 0.67 1.02 0.34 0 0 Z " fill="#ffffff" transform="translate(95,37)"/>
<path d="M0 0 C1.794375 0.4640625 1.794375 0.4640625 3.625 0.9375 C0.66723595 5.69564217 -2.15477912 6.8346528 -7.3515625 8.1640625 C-9.73604954 8.85165676 -9.73604954 8.85165676 -11.375 11.9375 C-11.10114361 7.41886957 -9.12782408 4.54423978 -6.20703125 1.25390625 C-3.9031288 -0.4015631 -2.77879143 -0.36030511 0 0 Z " fill="#ffffff" transform="translate(50.375,77.0625)"/>
<path d="M0 0 C1.32 0 2.64 0 4 0 C4.33 0.99 4.66 1.98 5 3 C-0.79308675 8.94553641 -0.79308675 8.94553641 -4.1640625 9.09765625 C-5.38222656 9.08025391 -5.38222656 9.08025391 -6.625 9.0625 C-7.85089844 9.04896484 -7.85089844 9.04896484 -9.1015625 9.03515625 C-10.04128906 9.01775391 -10.04128906 9.01775391 -11 9 C-10 7 -10 7 -6.625 5.625 C-2.96147889 3.98273191 -2.22989295 3.07937598 0 0 Z " fill="#ffffff" transform="translate(57,80)"/>
<path d="M0 0 C1.18851563 0.19464844 2.37703125 0.38929687 3.6015625 0.58984375 C4.97441406 0.82380859 4.97441406 0.82380859 6.375 1.0625 C3.94918129 3.48831871 2.30066131 4.02605664 -1.10546875 4.16015625 C-1.99878906 4.14855469 -2.89210938 4.13695313 -3.8125 4.125 C-5.16408203 4.11146484 -5.16408203 4.11146484 -6.54296875 4.09765625 C-7.23003906 4.08605469 -7.91710937 4.07445313 -8.625 4.0625 C-8.625 2.7425 -8.625 1.4225 -8.625 0.0625 C-5.61666904 -1.44166548 -3.27538422 -0.54589737 0 0 Z " fill="#ffffff" transform="translate(107.625,79.9375)"/>
<path d="M0 0 C-0.66 1.32 -1.32 2.64 -2 4 C-3.65 4 -5.3 4 -7 4 C-7.33 2.35 -7.66 0.7 -8 -1 C-3.375 -2.25 -3.375 -2.25 0 0 Z " fill="#000000" transform="translate(59,40)"/>
<path d="M0 0 C2.97 0.495 2.97 0.495 6 1 C5.67 2.32 5.34 3.64 5 5 C3.1875 5.6875 3.1875 5.6875 1 6 C-0.75 4.5625 -0.75 4.5625 -2 3 C-1.34 2.01 -0.68 1.02 0 0 Z " fill="#000000" transform="translate(92,37)"/>
</svg>
