<?xml version="1.0" standalone="no"?>
<!DOCTYPE svg PUBLIC "-//W3C//DTD SVG 20010904//EN"
 "http://www.w3.org/TR/2001/REC-SVG-20010904/DTD/svg10.dtd">
<svg version="1.0" xmlns="http://www.w3.org/2000/svg"
 width="64.000000pt" height="64.000000pt" viewBox="0 0 64.000000 64.000000"
 preserveAspectRatio="xMidYMid meet">
<metadata>
Created by potrace 1.16, written by Peter Selinger 2001-2019
</metadata>
<g transform="translate(0.000000,64.000000) scale(0.100000,-0.100000)"
fill="#FFFFFF" stroke="none">
<path d="M442 568 c-7 -7 -12 -29 -12 -50 l0 -38 -91 0 c-88 0 -90 -1 -87 -22
3 -22 7 -23 113 -23 106 0 109 1 115 23 5 22 7 21 50 -23 l44 -45 -44 -45
c-43 -44 -45 -45 -50 -23 -6 22 -10 23 -138 26 l-132 3 0 40 c0 68 -22 62
-121 -37 -49 -49 -89 -96 -89 -104 0 -9 40 -56 89 -103 101 -99 121 -104 121
-31 l0 44 91 0 c88 0 90 1 87 22 -3 22 -7 23 -113 23 -106 0 -109 -1 -115 -23
-5 -22 -7 -21 -50 23 l-44 45 44 45 c43 44 45 45 50 23 6 -22 10 -23 138 -26
l132 -3 0 -40 c0 -68 22 -62 121 37 49 49 89 96 89 104 0 14 -169 190 -182
190 -2 0 -9 -5 -16 -12z"/>
</g>
</svg>
