<?xml version="1.0" standalone="no"?>
<!DOCTYPE svg PUBLIC "-//W3C//DTD SVG 20010904//EN"
 "http://www.w3.org/TR/2001/REC-SVG-20010904/DTD/svg10.dtd">
<svg version="1.0" xmlns="http://www.w3.org/2000/svg"
 width="54.000000pt" height="64.000000pt" viewBox="0 0 54.000000 64.000000"
 preserveAspectRatio="xMidYMid meet">

<g transform="translate(0.000000,64.000000) scale(0.100000,-0.100000)"
fill="#FFFFFF" stroke="none">
<path d="M358 598 l-3 -43 -130 -5 c-142 -5 -172 -16 -201 -71 -15 -30 -21
-199 -6 -199 4 0 16 19 27 42 34 73 58 83 193 83 l117 0 3 -33 c2 -18 8 -32
14 -30 18 6 156 132 157 143 1 9 -127 131 -156 148 -8 5 -13 -5 -15 -35z m100
-71 l43 -44 -60 -52 c-59 -51 -61 -52 -61 -27 l0 26 -122 0 c-100 0 -131 -4
-165 -20 -24 -10 -43 -24 -43 -30 0 -5 -5 -10 -11 -10 -18 0 -4 88 17 112 34
38 76 48 204 48 l120 0 0 30 c0 26 3 29 18 21 9 -5 36 -29 60 -54z"/>
<path d="M495 318 c-33 -70 -59 -82 -186 -86 l-109 -4 0 37 c0 27 -4 36 -15
33 -24 -5 -175 -132 -172 -145 3 -18 168 -153 179 -147 4 3 8 23 8 45 l0 39
111 0 c182 0 219 31 219 183 0 48 -3 87 -8 87 -4 0 -16 -19 -27 -42z m15 -80
c0 -42 -18 -76 -53 -102 -24 -18 -47 -22 -155 -26 l-127 -5 -5 -29 -5 -29 -64
54 -64 53 29 23 c110 90 102 86 106 61 3 -22 7 -23 116 -26 95 -2 120 1 157
17 25 11 45 25 45 30 0 6 5 11 10 11 6 0 10 -15 10 -32z"/>
</g>
</svg>
